<?xml version="1.0" encoding="UTF-8" standalone="no"?>
<svg width="44px" height="10px" viewBox="0 0 44 10" version="1.1" xmlns="http://www.w3.org/2000/svg" xmlns:xlink="http://www.w3.org/1999/xlink">
    <!-- Generator: Sketch 3.8.3 (29802) - http://www.bohemiancoding.com/sketch -->
    <title>feefo</title>
    <desc>Created with Sketch.</desc>
    <defs></defs>
    <g id="Page-1" stroke="none" stroke-width="1" fill="none" fill-rule="evenodd">
        <g id="desktop-homepage" transform="translate(-508.000000, -1055.000000)">
            <g id="welcome" transform="translate(-1.000000, 753.000000)">
                <g id="Group-7" transform="translate(385.000000, 182.000000)">
                    <g id="feefo" transform="translate(124.000000, 120.000000)">
                        <path d="M19.7931142,7.68239496 C19.141689,8.99516807 18.1591378,9.7997479 16.6637874,9.95420168 C15.4539606,10.0792017 14.3792953,9.80764706 13.4880787,8.98319328 C12.7125354,8.26571429 12.2983898,7.38852941 12.2347717,6.33827731 C12.1217402,4.47189076 13.4588898,2.89684874 15.1457441,2.4755042 C17.0923543,1.98936975 19.3115827,2.83478992 19.9460748,5.23785714 C20.0749567,5.72584034 20.1278346,6.22344538 20.1280945,6.72857143 C20.1281811,6.89957983 20.0908071,6.94710084 19.9075748,6.94630252 C18.1905787,6.93840336 16.4734528,6.94130252 14.7564134,6.94121849 C14.5006417,6.94117647 14.493063,6.9512605 14.5911535,7.17836134 C14.8214173,7.71163866 15.2497244,7.98386555 15.8270512,8.06159664 C16.366311,8.1342437 16.8722677,8.07563025 17.3039961,7.71773109 C17.3406339,7.68735294 17.3802165,7.68235294 17.4239134,7.68235294 C18.2018819,7.68239496 18.9799803,7.68239496 19.7931142,7.68239496 L19.7931142,7.68239496 Z M17.8760827,5.40705882 C17.5748819,4.58298319 16.855248,4.21483193 15.7920157,4.31932773 C15.1290709,4.38453782 14.539748,4.86878151 14.4698937,5.40705882 L17.8760827,5.40705882 L17.8760827,5.40705882 Z" id="Shape" fill="#000000"></path>
                        <path d="M6.24202362,6.94113445 C6.3769685,7.56567227 6.88088976,7.98806723 7.52127165,8.06289916 C8.06984252,8.12697479 8.58112598,8.0752521 9.02108268,7.71764706 C9.06612205,7.6810084 9.11202756,7.68256303 9.16135433,7.68252101 C9.92576772,7.68226891 10.6901811,7.68235294 11.4508701,7.68235294 C11.4764213,7.73176471 11.4615669,7.7687395 11.4415157,7.80756303 C10.8004843,9.04827731 9.81091732,9.79214286 8.35540945,9.95945378 C6.00270866,10.229916 4.42624409,8.62310924 4.03747638,7.0439916 C3.53550394,5.0052521 4.88625197,2.86285714 7.0235,2.43491597 C9.01614567,2.03592437 11.0838858,2.95903361 11.6736417,5.2955042 C11.7937756,5.77159664 11.832189,6.25739496 11.8477362,6.74651261 C11.8528031,6.9057563 11.8061614,6.94516807 11.6441929,6.94466387 C9.91294882,6.93890756 8.18170472,6.94109244 6.45041732,6.94109244 C6.38558661,6.94113445 6.32075591,6.94113445 6.24202362,6.94113445 L6.24202362,6.94113445 Z M9.59823622,5.41340336 C9.39174803,4.86155462 9.01272441,4.51915966 8.45887008,4.36735294 C8.14493701,4.28134454 7.81970079,4.26668067 7.49779921,4.32105042 C6.9061811,4.42113445 6.43352756,4.6802521 6.20503937,5.25894958 C6.15761811,5.3789916 6.16970079,5.4160084 6.31040551,5.41554622 C7.39884252,5.41168067 8.48727953,5.41340336 9.59823622,5.41340336 L9.59823622,5.41340336 Z" id="Shape" fill="#000000"></path>
                        <path d="M27.8782874,9.99210084 C25.7484016,10.0667647 23.9404173,8.31668067 23.9453543,6.1705042 C23.9504213,3.95298319 25.8493071,2.36214286 27.8601417,2.37277311 C30.1011535,2.38457983 31.8212244,4.05781513 31.8354291,6.19092437 C31.8502835,8.4105042 29.9206929,10.0495378 27.8782874,9.99210084 L27.8782874,9.99210084 Z M29.6333937,6.19651261 C29.6407559,5.22596639 28.8337283,4.40088235 27.8818386,4.40567227 C26.9603937,4.41029412 26.1486457,5.2092437 26.1410669,6.11903361 C26.1325354,7.14256303 26.8962559,7.9497479 27.8810157,7.95806723 C28.8309567,7.96609244 29.6260748,7.16676471 29.6333937,6.19651261 L29.6333937,6.19651261 Z" id="Shape" fill="#000000"></path>
                        <path d="M3.0152126,6.99319328 C3.01503937,7.8610084 3.00737402,8.72894958 3.02084252,9.59655462 C3.02387402,9.79306723 2.96003937,9.8244958 2.77879921,9.82096639 C2.2091811,9.81 1.639,9.80907563 1.0694252,9.82163866 C0.88238189,9.8257563 0.827988189,9.78348739 0.828940945,9.59403361 C0.837385827,7.87243697 0.830933071,6.1507563 0.838728346,4.42911765 C0.839594488,4.24159664 0.797370079,4.17453782 0.59473622,4.18827731 C0.412153543,4.20063025 0.165216535,4.27201681 0.0590275591,4.15512605 C-0.031484252,4.0555042 0.0310944882,3.82294118 0.0300551181,3.64911765 C0.0281496063,3.33420168 0.0348622047,3.01911765 0.0263740157,2.70441176 C0.0230826772,2.58277311 0.063488189,2.5487395 0.185137795,2.5537395 C0.386602362,2.56197479 0.634188976,2.62189076 0.777318898,2.53222689 C0.906807087,2.45109244 0.798582677,2.19142857 0.828897638,2.01016807 C0.865622047,1.7905042 0.88684252,1.56890756 0.961070866,1.35672269 C1.22455118,0.603193277 1.82483071,0.258697479 2.58244488,0.124117647 C2.96346063,0.0564285714 3.34988976,0.0162184874 3.7412126,0.0537815126 C3.85337795,0.0645798319 3.88538189,0.0935714286 3.88364961,0.201806723 C3.87719685,0.600630252 3.87728346,0.999621849 3.8836063,1.39844538 C3.88533858,1.50848739 3.84874409,1.54722689 3.73735827,1.54563025 C3.03716929,1.53558824 3.00252362,1.94705882 3.01361024,2.47231092 C3.0158189,2.57705882 3.08524016,2.55542017 3.14574016,2.55571429 C3.34049213,2.55684874 3.53537402,2.56021008 3.72995276,2.5544958 C3.83246063,2.55147059 3.88594488,2.56605042 3.88408268,2.68735294 C3.87698031,3.14911765 3.87745669,3.61113445 3.88386614,4.07302521 C3.88538189,4.18323529 3.83956299,4.19857143 3.7442874,4.19537815 C3.5713622,4.18953782 3.39731102,4.20361345 3.22520866,4.19084034 C3.06401969,4.17882353 3.00841339,4.21718487 3.01053543,4.38978992 C3.02123228,5.25747899 3.01538583,6.12537815 3.0152126,6.99319328 L3.0152126,6.99319328 Z" id="Shape" fill="#000000"></path>
                        <path d="M23.1096575,7.00928571 C23.1095709,7.88436975 23.1058898,8.75953782 23.113122,9.63457983 C23.1143346,9.78268908 23.071937,9.82243697 22.9207087,9.82029412 C22.3219016,9.81201681 21.7227913,9.81021008 21.1241142,9.82130252 C20.9530945,9.82445378 20.9247283,9.76752101 20.9251614,9.61819328 C20.9302717,7.88201681 20.9259843,6.14571429 20.9330433,4.40953782 C20.9337362,4.23903361 20.8987008,4.17794118 20.7123071,4.18840336 C20.5218858,4.19911765 20.265378,4.27361345 20.1551181,4.15478992 C20.060622,4.05302521 20.1257992,3.80970588 20.1245866,3.62894958 C20.1225079,3.32092437 20.1263189,3.01285714 20.1221614,2.70487395 C20.1209055,2.60827731 20.13,2.55273109 20.2573228,2.55243697 C20.4783622,2.55197479 20.789437,2.64987395 20.8955827,2.51218487 C20.9958819,2.38205882 20.9211339,2.10063025 20.9438268,1.88546218 C21.0169291,1.19281513 21.3205551,0.640546218 21.9883071,0.336932773 C22.5797953,0.0679411765 23.2151969,0.0173109244 23.861685,0.0564285714 C23.9604252,0.0624369748 23.9793071,0.0956722689 23.9785709,0.18105042 C23.9751063,0.59407563 23.9748898,1.00714286 23.9787008,1.42016807 C23.9795236,1.50840336 23.9546654,1.54689076 23.8584803,1.54386555 C23.1657402,1.52214286 23.0967087,1.91957983 23.1068425,2.45159664 C23.1088346,2.55785714 23.1617559,2.55806723 23.2405748,2.55697479 C23.4426024,2.55420168 23.6448898,2.5612605 23.8466142,2.55352941 C23.9516339,2.5494958 23.9803898,2.58273109 23.9792638,2.68294118 C23.9742402,3.14495798 23.9738071,3.60705882 23.9794803,4.06907563 C23.9807362,4.17264706 23.9466535,4.19966387 23.8450118,4.1957563 C23.6577087,4.18848739 23.4691929,4.20319328 23.2824961,4.19054622 C23.1388898,4.18088235 23.1054134,4.22705882 23.1064528,4.36289916 C23.1129488,5.245 23.1097441,6.12718487 23.1096575,7.00928571 L23.1096575,7.00928571 Z" id="Shape" fill="#000000"></path>
                        <path d="M37.6488858,3.82970588 C37.2527126,4.91815126 36.2302323,5.62067227 35.0516299,5.62226891 C33.8525433,5.62386555 32.8034724,4.89588235 32.4009331,3.78289916 C31.9987402,2.67071429 32.3400433,1.38823529 33.2242441,0.689285714 C34.1378071,-0.0328991597 35.5139764,-0.145966387 36.507311,0.447689076 C37.4559961,1.01470588 37.8087756,1.89726891 37.8368386,2.93693277 C37.8416024,3.11289916 37.7150591,3.05722689 37.6296575,3.05739496 C36.2375945,3.06 34.8455315,3.06289916 33.4535118,3.05491597 C33.2654724,3.05386555 33.2182244,3.10142857 33.2498819,3.27714286 C33.3936181,4.07478992 34.0359488,4.73403361 34.8538898,4.91096639 C35.6824409,5.09029412 36.557374,4.77802521 37.008374,4.08852941 C37.1778346,3.82957983 37.3583386,3.7562605 37.6488858,3.82970588 L37.6488858,3.82970588 Z" id="Shape" fill="#FFDD00"></path>
                        <path d="M38.5857913,3.82453782 C38.8431654,3.77936975 39.0328937,3.7994958 39.2007087,4.06579832 C39.6463819,4.77294118 40.5410197,5.0962605 41.3849449,4.90941176 C42.2118071,4.72634454 42.8687323,4.02739496 42.9837126,3.22268908 C43.0064488,3.06323529 42.9326535,3.05726891 42.8072795,3.05752101 C41.4153031,3.0602521 40.0233268,3.0547479 38.631437,3.06420168 C38.4285866,3.06554622 38.3832008,3.0087395 38.3876614,2.82163866 C38.4180197,1.55731092 39.1768465,0.514705882 40.3171654,0.188613445 C41.8991732,-0.263739496 43.4883268,0.567647059 43.8909094,2.05831933 C44.3179173,3.63953782 43.3766378,5.21466387 41.7837165,5.5544958 C40.4709921,5.83457983 39.1807008,5.26021008 38.5831496,3.87058824 C38.5782992,3.85945378 38.5843622,3.84390756 38.5857913,3.82453782 L38.5857913,3.82453782 Z" id="Shape" fill="#FFDD00"></path>
                    </g>
                </g>
            </g>
        </g>
    </g>
</svg>