<svg width="82" height="41" viewBox="0 0 82 41" xmlns="http://www.w3.org/2000/svg" xmlns:xlink="http://www.w3.org/1999/xlink"><title>Combined Shape</title><defs><path d="M221.212 26.383c1.75-.317 3.041-.176 4.183 1.693 3.032 4.963 9.117 7.233 14.858 5.921 5.625-1.285 10.094-6.19 10.876-11.838.155-1.119-.347-1.16-1.2-1.16-9.47.02-18.938-.019-28.407.048-1.38.01-1.688-.39-1.658-1.703.206-8.873 5.368-16.19 13.126-18.48 10.761-3.174 21.572 2.66 24.31 13.123 2.905 11.098-3.498 22.153-14.334 24.538-8.93 1.965-17.707-2.066-21.772-11.819-.033-.078.008-.187.018-.323zm-6.374.036c-2.695 7.64-9.65 12.57-17.668 12.581-8.157.012-15.293-5.098-18.031-12.91-2.736-7.805-.415-16.806 5.6-21.711 6.215-5.069 15.576-5.863 22.334-1.696 6.453 3.98 8.853 10.174 9.044 17.47.032 1.236-.828.845-1.41.846-9.47.018-18.939.039-28.408-.017-1.28-.008-1.6.326-1.385 1.56.977 5.597 5.347 10.224 10.911 11.466 5.636 1.259 11.588-.933 14.656-5.772 1.153-1.818 2.38-2.332 4.357-1.817z" id="b"/><filter x="-50%" y="-50%" width="200%" height="200%" filterUnits="objectBoundingBox" id="a"><feOffset in="SourceAlpha" result="shadowOffsetOuter1"/><feGaussianBlur stdDeviation=".5" in="shadowOffsetOuter1" result="shadowBlurOuter1"/><feColorMatrix values="0 0 0 0 0 0 0 0 0 0 0 0 0 0 0 0 0 0 0.5 0" in="shadowBlurOuter1"/></filter></defs><g transform="translate(-177 1)" fill="none" fill-rule="evenodd"><use fill="#4A4A4A" filter="url(#a)" xlink:href="#b"/><use fill="#4A4A4A" xlink:href="#b"/><use fill="#4A4A4A" xlink:href="#b"/></g></svg>