<?xml version="1.0" encoding="UTF-8" standalone="no"?>
<svg width="82px" height="41px" viewBox="0 0 82 41" version="1.1" xmlns="http://www.w3.org/2000/svg" xmlns:xlink="http://www.w3.org/1999/xlink">
    <!-- Generator: Sketch 3.8.3 (29802) - http://www.bohemiancoding.com/sketch -->
    <title>Combined Shape</title>
    <desc>Created with Sketch.</desc>
    <defs>
        <path d="M221.211747,26.3830975 C222.96256,26.0660895 224.253207,26.2073424 225.394785,28.0763628 C228.426524,33.0393817 234.51239,35.3085695 240.253279,33.9971883 C245.878095,32.7123473 250.346897,27.8068322 251.129062,22.159076 C251.283728,21.0399639 250.781728,20.9980893 249.928858,20.9998586 C240.459794,21.0190266 230.990731,20.9803958 221.522256,21.0467464 C220.142345,21.0561829 219.833603,20.65749 219.863947,19.3443395 C220.070462,10.4707684 225.23246,3.15333811 232.989598,0.864687509 C243.751371,-2.31011115 254.561753,3.52490103 257.300363,13.987051 C260.205129,25.0846916 253.801977,36.1395729 242.965965,38.5246529 C234.036021,40.4903976 225.25868,36.4592349 221.193776,26.7062983 C221.160781,26.6281521 221.202025,26.5190424 221.211747,26.3830975 Z M214.838349,26.4193691 C212.14334,34.0585257 205.187811,38.9891065 197.170247,39.0003124 C189.013335,39.0115183 181.876922,33.9022333 179.138606,26.0908603 C176.402647,18.2850903 178.724397,9.28412616 184.739265,4.37861105 C190.953872,-0.689978897 200.315406,-1.48353112 207.072668,2.68298665 C213.526197,6.66254339 215.926016,12.8567331 216.116918,20.1535209 C216.149324,21.3885253 215.2885,20.9977944 214.707547,20.998974 C205.237894,21.0172572 195.768241,21.0376047 186.298882,20.9815754 C185.019725,20.9742031 184.698315,21.30802 184.913669,22.541255 C185.891449,28.1394695 190.26097,32.7663124 195.825099,34.0080993 C201.461404,35.2666949 207.413227,33.0750635 210.481201,28.2358989 C211.633975,26.4184845 212.861872,25.9038993 214.838349,26.4193691 Z" id="path-1"></path>
        <filter x="-50%" y="-50%" width="200%" height="200%" filterUnits="objectBoundingBox" id="filter-2">
            <feOffset dx="0" dy="0" in="SourceAlpha" result="shadowOffsetOuter1"></feOffset>
            <feGaussianBlur stdDeviation="0.5" in="shadowOffsetOuter1" result="shadowBlurOuter1"></feGaussianBlur>
            <feColorMatrix values="0 0 0 0 0   0 0 0 0 0   0 0 0 0 0  0 0 0 0.5 0" type="matrix" in="shadowBlurOuter1"></feColorMatrix>
        </filter>
    </defs>
    <g id="Page-1" stroke="none" stroke-width="1" fill="none" fill-rule="evenodd">
        <g id="desktop-homepage" transform="translate(-561.000000, -934.000000)">
            <g id="welcome" transform="translate(-1.000000, 753.000000)">
                <g id="Group-7" transform="translate(385.000000, 182.000000)">
                    <g id="Combined-Shape">
                        <use fill="black" fill-opacity="1" filter="url(#filter-2)" xlink:href="#path-1"></use>
                        <use fill="#4A4A4A" fill-rule="evenodd" xlink:href="#path-1"></use>
                        <use fill="black" fill-opacity="1" xlink:href="#path-1"></use>
                    </g>
                </g>
            </g>
        </g>
    </g>
</svg>