<?xml version="1.0" encoding="UTF-8" standalone="no"?>
<svg width="18px" height="19px" viewBox="0 0 18 19" version="1.1" xmlns="http://www.w3.org/2000/svg" xmlns:xlink="http://www.w3.org/1999/xlink">
    <!-- Generator: Sketch 3.8.3 (29802) - http://www.bohemiancoding.com/sketch -->
    <title>icon-butterfly</title>
    <desc>Created with Sketch.</desc>
    <defs></defs>
    <g id="Page-1" stroke="none" stroke-width="1" fill="none" fill-rule="evenodd">
        <g id="Artboard-Copy-16" transform="translate(-6.000000, -6.000000)" fill="#FFFFFF">
            <g id="icon-butterfly" transform="translate(6.000000, 6.000000)">
                <path d="M8.29331385,14.5298459 C7.69707522,16.4522322 5.68109555,19 4.15778337,19 C2.35030601,19 0.8850561,17.4815292 0.8850561,15.6084005 C0.8850561,13.7352718 2.35030601,12.4845588 4.15778337,12.4845588 C4.52534399,12.4845588 4.92158824,12.4507405 5.31965024,12.4126101 C5.09571639,12.4044654 4.86434371,12.3975723 4.62692593,12.3975723 C2.39136182,12.3975723 0.0238120806,10.9961951 0.0238120806,7.50872525 C0.0238120806,4.02125536 -0.328928076,-3.58140675e-16 1.68086572,0 C3.39285394,2.95858553e-16 7.18123793,4.37813611 8.26635282,7.83116671 C8.33316001,8.00240228 8.39402839,8.23338116 8.44676014,8.51184033 C8.49664113,8.7470156 8.53121215,8.97570614 8.54875123,9.19600136 C8.61628973,9.7781156 8.65550239,10.4720752 8.65550239,11.2171362 C8.65550239,12.6601742 8.50840726,13.9115202 8.29331385,14.5298459 Z M4.11472117,17.0810687 C4.82819908,17.0810687 5.4065872,16.4816723 5.4065872,15.7422794 C5.4065872,15.0028865 4.82819908,14.4034901 4.11472117,14.4034901 C3.40124327,14.4034901 2.82285514,15.0028865 2.82285514,15.7422794 C2.82285514,16.4816723 3.40124327,17.0810687 4.11472117,17.0810687 Z M3.58606872,10.3871222 C4.53079707,10.3871222 5.29665072,9.59345118 5.29665072,8.61440833 C5.29665072,7.63536548 4.53079707,6.84169444 3.58606872,6.84169444 C2.64134037,6.84169444 1.87548672,7.63536548 1.87548672,8.61440833 C1.87548672,9.59345118 2.64134037,10.3871222 3.58606872,10.3871222 Z" id="Combined-Shape"></path>
                <path d="M17.6378115,14.5298459 C17.0415728,16.4522322 15.0255932,19 13.502281,19 C11.6948036,19 10.2295537,17.4815292 10.2295537,15.6084005 C10.2295537,13.7352718 11.6948036,12.4845588 13.502281,12.4845588 C13.8698416,12.4845588 14.2660858,12.4507405 14.6641478,12.4126101 C14.440214,12.4044654 14.2088413,12.3975723 13.9714235,12.3975723 C11.7358594,12.3975723 9.36830969,10.9961951 9.36830969,7.50872525 C9.36830969,4.02125536 9.01556953,-3.58140675e-16 11.0253633,0 C12.7373515,2.95858553e-16 16.5257355,4.37813611 17.6108504,7.83116671 C17.6776576,8.00240228 17.738526,8.23338116 17.7912577,8.51184033 C17.8411387,8.7470156 17.8757098,8.97570614 17.8932488,9.19600136 C17.9607873,9.7781156 18,10.4720752 18,11.2171362 C18,12.6601742 17.8529049,13.9115202 17.6378115,14.5298459 Z M13.4592188,17.0810687 C14.1726967,17.0810687 14.7510848,16.4816723 14.7510848,15.7422794 C14.7510848,15.0028865 14.1726967,14.4034901 13.4592188,14.4034901 C12.7457409,14.4034901 12.1673528,15.0028865 12.1673528,15.7422794 C12.1673528,16.4816723 12.7457409,17.0810687 13.4592188,17.0810687 Z M12.9305663,10.3871222 C13.8752947,10.3871222 14.6411483,9.59345118 14.6411483,8.61440833 C14.6411483,7.63536548 13.8752947,6.84169444 12.9305663,6.84169444 C11.985838,6.84169444 11.2199843,7.63536548 11.2199843,8.61440833 C11.2199843,9.59345118 11.985838,10.3871222 12.9305663,10.3871222 Z" id="Combined-Shape-Copy" transform="translate(13.672249, 9.500000) scale(-1, 1) translate(-13.672249, -9.500000) "></path>
                <path d="M9.18061636,8.88934721 C9.27895492,9.5412247 9.34449761,10.7094896 9.34449761,12.0422535 C9.34449761,14.0867442 9.19026078,15.7441315 9,15.7441315 C8.80973922,15.7441315 8.65550239,14.0867442 8.65550239,12.0422535 C8.65550239,10.7094896 8.72104508,9.5412247 8.81938364,8.88934721 C8.59883395,8.81152835 8.44019139,8.59514045 8.44019139,8.34037559 C8.44019139,8.02015415 8.69082624,7.76056338 9,7.76056338 C9.30917376,7.76056338 9.55980861,8.02015415 9.55980861,8.34037559 C9.55980861,8.59514045 9.40116605,8.81152835 9.18061636,8.88934721 Z" id="Combined-Shape"></path>
            </g>
        </g>
    </g>
</svg>