<?xml version="1.0" encoding="UTF-8" standalone="no"?>
<svg width="26px" height="16px" viewBox="0 0 26 16" version="1.1" xmlns="http://www.w3.org/2000/svg" xmlns:xlink="http://www.w3.org/1999/xlink">
    <!-- Generator: Sketch 3.8.3 (29802) - http://www.bohemiancoding.com/sketch -->
    <title>bed - FontAwesome</title>
    <desc>Created with Sketch.</desc>
    <defs>
        <path d="M27,17 C27,17 28,16.9840565 28,17 L28,23 L26.5,23 L26.5,18.5 L3.5,18.5 L3.5,23 L2,23 L2,7 L3.5,7 L3.5,17 L27,17 Z M10,13 C10,14.6523438 8.65234375,16 7,16 C5.34765625,16 4,14.6523438 4,13 C4,11.3476562 5.34765625,10 7,10 C8.65234375,10 10,11.3476562 10,13 L10,13 Z M28,16 L11,16 L11,11 C11,10.3883929 11.3776042,10 12,10 L23,10 C25.7604167,10 28,12.3035714 28,15 L28,16 Z" id="path-1"></path>
        <mask id="mask-2" maskContentUnits="userSpaceOnUse" maskUnits="objectBoundingBox" x="0" y="0" width="26" height="16" fill="white">
            <use xlink:href="#path-1"></use>
        </mask>
    </defs>
    <g id="Page-1" stroke="none" stroke-width="1" fill="none" fill-rule="evenodd">
        <g id="Artboard-Copy" transform="translate(-2.000000, -7.000000)" stroke="#FFFFFF" stroke-width="2">
            <use id="bed---FontAwesome" mask="url(#mask-2)" xlink:href="#path-1"></use>
        </g>
    </g>
</svg>