<?xml version="1.0" encoding="UTF-8" standalone="no"?>
<svg width="16px" height="19px" viewBox="0 0 16 19" version="1.1" xmlns="http://www.w3.org/2000/svg" xmlns:xlink="http://www.w3.org/1999/xlink">
    <!-- Generator: Sketch 3.8.3 (29802) - http://www.bohemiancoding.com/sketch -->
    <title>icon-dishwasher</title>
    <desc>Created with Sketch.</desc>
    <defs>
        <rect id="path-1" x="1" y="4" width="14" height="1"></rect>
        <mask id="mask-2" maskContentUnits="userSpaceOnUse" maskUnits="objectBoundingBox" x="0" y="0" width="14" height="1" fill="white">
            <use xlink:href="#path-1"></use>
        </mask>
        <rect id="path-3" x="3" y="2" width="3" height="1"></rect>
        <mask id="mask-4" maskContentUnits="userSpaceOnUse" maskUnits="objectBoundingBox" x="0" y="0" width="3" height="1" fill="white">
            <use xlink:href="#path-3"></use>
        </mask>
        <rect id="path-5" x="0" y="0" width="16" height="19"></rect>
        <mask id="mask-6" maskContentUnits="userSpaceOnUse" maskUnits="objectBoundingBox" x="0" y="0" width="16" height="19" fill="white">
            <use xlink:href="#path-5"></use>
        </mask>
    </defs>
    <g id="Page-1" stroke="none" stroke-width="1" fill="none" fill-rule="evenodd">
        <g id="Artboard-Copy-8" transform="translate(-7.000000, -6.000000)">
            <g id="icon-dishwasher" transform="translate(7.000000, 6.000000)">
                <use id="Rectangle-153" stroke="#FFFFFF" mask="url(#mask-2)" stroke-width="2" fill="#D8D8D8" xlink:href="#path-1"></use>
                <use id="Rectangle-154" stroke="#FFFFFF" mask="url(#mask-4)" stroke-width="2" xlink:href="#path-3"></use>
                <path d="M10.5,3 C10.7761424,3 11,2.77614237 11,2.5 C11,2.22385763 10.7761424,2 10.5,2 C10.2238576,2 10,2.22385763 10,2.5 C10,2.77614237 10.2238576,3 10.5,3 Z" id="Oval-9" fill="#FFFFFF"></path>
                <path d="M12.5,3 C12.7761424,3 13,2.77614237 13,2.5 C13,2.22385763 12.7761424,2 12.5,2 C12.2238576,2 12,2.22385763 12,2.5 C12,2.77614237 12.2238576,3 12.5,3 Z" id="Oval-9-Copy" fill="#FFFFFF"></path>
                <path d="M5.5,16.5 L7.5,11.5" id="Line" stroke="#FFFFFF" stroke-linecap="square"></path>
                <path d="M3.5,16.5 L5.5,11.5" id="Line-Copy-4" stroke="#FFFFFF" stroke-linecap="square"></path>
                <path d="M7.5,16.5 L9.5,11.5" id="Line-Copy" stroke="#FFFFFF" stroke-linecap="square"></path>
                <path d="M9.5,16.5 L11.5,11.5" id="Line-Copy-2" stroke="#FFFFFF" stroke-linecap="square"></path>
                <path d="M11.5,16.5 L13.5,11.5" id="Line-Copy-3" stroke="#FFFFFF" stroke-linecap="square"></path>
                <use id="Rectangle-152" stroke="#FFFFFF" mask="url(#mask-6)" stroke-width="3" xlink:href="#path-5"></use>
            </g>
        </g>
    </g>
</svg>