<?xml version="1.0" encoding="UTF-8" standalone="no"?>
<svg width="17px" height="16px" viewBox="0 0 17 16" version="1.1" xmlns="http://www.w3.org/2000/svg" xmlns:xlink="http://www.w3.org/1999/xlink">
    <!-- Generator: Sketch 3.8.3 (29802) - http://www.bohemiancoding.com/sketch -->
    <title></title>
    <desc>Created with Sketch.</desc>
    <defs></defs>
    <g id="Page-1" stroke="none" stroke-width="1" fill="none" fill-rule="evenodd">
        <path d="M8.3984375,12.96875 C9.64844375,11.8489527 10.5729137,11.002607 11.171875,10.4296875 C11.7708363,9.85676797 12.4218715,9.17969141 13.125,8.3984375 C13.8281285,7.61718359 14.3164049,6.92708633 14.5898438,6.328125 C14.8632826,5.72916367 15,5.14323203 15,4.5703125 C15,3.736975 14.7200549,3.04687773 14.1601562,2.5 C13.6002576,1.95312227 12.90365,1.6796875 12.0703125,1.6796875 C11.4192676,1.6796875 11.1647949,1.67803958 10.2539062,2.2265625 C9.34301758,2.77508542 8.3203125,4.14904785 8.3203125,4.14904785 C8.3203125,4.14904785 7.33703613,2.77508542 6.38671875,2.2265625 C5.43640137,1.67803958 5.22135742,1.6796875 4.5703125,1.6796875 C3.736975,1.6796875 3.04036738,1.95312227 2.48046875,2.5 C1.92057012,3.04687773 1.640625,3.736975 1.640625,4.5703125 C1.640625,5.14323203 1.77734238,5.72916367 2.05078125,6.328125 C2.32422012,6.92708633 2.81249648,7.61718359 3.515625,8.3984375 C4.21875352,9.17969141 4.86978867,9.85676797 5.46875,10.4296875 C6.06771133,11.002607 6.99218125,11.8489527 8.2421875,12.96875 L8.3203125,13.046875 L8.3984375,12.96875 Z M12.0703125,0 C13.3724023,0 14.4596311,0.442703906 15.3320312,1.328125 C16.2044314,2.21354609 16.640625,3.29426445 16.640625,4.5703125 C16.640625,5.32552461 16.4973973,6.06119434 16.2109375,6.77734375 C15.9244777,7.49349316 15.3971393,8.29426641 14.6289062,9.1796875 C13.8606732,10.0651086 13.1640656,10.8072887 12.5390625,11.40625 C11.9140594,12.0052113 10.9114652,12.9296813 9.53125,14.1796875 L8.3203125,15.2734375 L7.109375,14.21875 C5.31249102,12.6041586 4.01693105,11.3932332 3.22265625,10.5859375 C2.42838145,9.7786418 1.69271172,8.82813047 1.015625,7.734375 C0.338538281,6.64061953 0,5.58594258 0,4.5703125 C0,3.29426445 0.436193555,2.21354609 1.30859375,1.328125 C2.18099395,0.442703906 3.26822266,0 4.5703125,0 C6.08073672,0 7.33072422,0.585931641 8.3203125,1.7578125 C9.30990078,0.585931641 10.5598883,0 12.0703125,0 L12.0703125,0 Z" id="" fill="#66942E"></path>
    </g>
</svg>