<?xml version="1.0" encoding="UTF-8" standalone="no"?>
<svg width="16px" height="18px" viewBox="0 0 16 18" version="1.1" xmlns="http://www.w3.org/2000/svg" xmlns:xlink="http://www.w3.org/1999/xlink">
    <!-- Generator: Sketch 3.8.3 (29802) - http://www.bohemiancoding.com/sketch -->
    <title>bell - simple-line-icons</title>
    <desc>Created with Sketch.</desc>
    <defs></defs>
    <g id="Page-1" stroke="none" stroke-width="1" fill="none" fill-rule="evenodd">
        <path d="M13.7999838,11.1135029 C13.4418607,10.5733828 13.2628018,10.0156585 13.2628018,9.44031311 L13.2628018,5.7592955 C13.2628018,4.96085706 13.1248384,4.21233226 12.8489075,3.51369863 C12.5729765,2.815065 12.1913757,2.20450359 11.7040934,1.68199609 C11.2168111,1.15948858 10.6444098,0.748533787 9.98687225,0.449119374 C9.32933472,0.149704961 8.61897,0 7.85575679,0 C7.10428532,0 6.39979139,0.149704961 5.74225385,0.449119374 C5.08471632,0.748533787 4.51525039,1.15948858 4.03383898,1.68199609 C3.55242757,2.20450359 3.17376208,2.815065 2.89783115,3.51369863 C2.62190022,4.21233226 2.48393683,4.96085706 2.48393683,5.7592955 L2.48393683,9.44031311 C2.48393683,10.0039167 2.29607178,10.5469641 1.92033605,11.0694716 C1.54460031,11.5919791 1.19822413,12.0587064 0.881197103,12.4696673 C0.599395302,12.8454031 0.500014228,13.0105591 0.211921173,13.5 C-0.0761718813,13.9894409 0.211921173,14.9882584 1.63853565,14.9882583 L4.86162763,14.9882583 C4.86162763,15.821922 5.15516677,16.5322867 5.74225385,17.1193738 C6.32934094,17.7064609 7.03970565,18 7.87336931,18 C8.70703297,18 9.41739769,17.7064609 10.0044848,17.1193738 C10.5915719,16.5322867 10.885111,15.821922 10.885111,14.9882583 L14.0198975,14.9882584 C15.4783325,14.9882584 15.8754887,13.9969482 15.55243,13.5264188 C15.2293713,13.0558893 15.1356018,12.8982406 14.8303165,12.5225049 C14.5015477,12.1232857 14.1581069,11.6536231 13.7999838,11.1135029 Z M7.87336931,16.8317025 C7.36847442,16.8317025 6.93697189,16.6526437 6.57884877,16.2945205 C6.22072564,15.9363974 6.04166677,15.5048949 6.04166677,15 L9.70507186,15 C9.70507186,15.5048949 9.52601298,15.9363974 9.16788986,16.2945205 C8.80976674,16.6526437 8.37826421,16.8317025 7.87336931,16.8317025 L7.87336931,16.8317025 Z M2.08129921,13.342833 L1.96677913,13.342833 L1.88497908,13.342833 C1.93951272,13.2555792 2.00222547,13.1628734 2.0731192,13.0647129 C2.14401294,12.9665523 2.21217897,12.8738465 2.27761934,12.7865927 C2.59391446,12.3612303 2.95655774,11.8513484 3.36556006,11.2569317 C3.77456238,10.662515 3.97906047,10.0108477 3.97906047,9.30191036 L3.97906047,5.88266809 C3.97906047,5.29370475 4.07721955,4.74292323 4.27354066,4.23030699 C4.46986178,3.71769075 4.7425259,3.27052159 5.09154121,2.8887861 C5.44055652,2.5070506 5.85227934,2.20439343 6.32672203,1.98080549 C6.80116472,1.75721756 7.31104662,1.64542527 7.85638305,1.64542527 C8.4126262,1.64542527 8.92796139,1.75721756 9.40240407,1.98080549 C9.87684676,2.20439343 10.2885696,2.5070506 10.6375849,2.8887861 C10.9866002,3.27052159 11.261991,3.71769075 11.4637654,4.23030699 C11.6655399,4.74292323 11.7664256,5.29370475 11.7664256,5.88266809 L11.7664256,9.30191036 C11.7664256,10.0326612 11.9600172,10.7006883 12.347206,11.3060117 C12.7343949,11.9113351 13.1079447,12.4321236 13.4678668,12.8683927 C13.5333071,12.9447398 13.5987465,13.0238124 13.6641869,13.1056129 C13.7296273,13.1874134 13.7896134,13.2664859 13.844147,13.342833 L13.795067,13.342833 L13.729627,13.342833 L2.08129921,13.342833 Z" id="bell---simple-line-icons" fill="#66942E"></path>
    </g>
</svg>