<?xml version="1.0" encoding="UTF-8" standalone="no"?>
<svg width="20px" height="22px" viewBox="0 0 20 22" version="1.1" xmlns="http://www.w3.org/2000/svg" xmlns:xlink="http://www.w3.org/1999/xlink">
    <!-- Generator: Sketch 3.8.3 (29802) - http://www.bohemiancoding.com/sketch -->
    <title>Group</title>
    <desc>Created with Sketch.</desc>
    <defs></defs>
    <g id="Page-1" stroke="none" stroke-width="1" fill="none" fill-rule="evenodd">
        <g id="Artboard-Copy-3" transform="translate(-5.000000, -4.000000)">
            <g id="Group" transform="translate(5.000000, 3.000000)">
                <path d="M1.5,15.5015869 L1.5,21.0026083 C1.5,21.2775592 1.72158398,21.5 1.99079514,21.5 L18.0092049,21.5 C18.2754369,21.5 18.5,21.2752312 18.5,21.0026083 L18.5,15.4859619 L1.5,15.5015869 Z M20,14 L20,21.0026083 C20,22.1057373 19.1017876,23 18.0092049,23 L1.99079514,23 C0.891309342,23 0,22.1041422 0,21.0026083 L0,14 L20,14 Z" id="Rectangle-1" fill="#FFFFFF"></path>
                <path d="M19,3 C19,1.8954305 18.1045695,1 17,1 C16.4487483,1 15.9495859,1.22302099 15.5878188,1.58375699 L16.2973898,2.2884249 C16.4779877,2.11008814 16.7261376,2 17,2 C17.5522847,2 18,2.44771525 18,3 L19,3 Z M18,3 L19,3 L19,14 L18,14 L18,3 Z" id="Combined-Shape" fill="#FFFFFF"></path>
                <polygon id="Rectangle-4" fill="#FFFFFF" points="17 0.995422363 16 4 14 2"></polygon>
                <path d="M13.3737793,3.13781738 L4.93127441,10.1871948" id="Line" stroke="#FFFFFF" stroke-linecap="square" stroke-dasharray="2,2"></path>
                <path d="M14.1932983,4.01000977 L6.33074951,12.8917847" id="Line-Copy-2" stroke="#FFFFFF" stroke-linecap="square" stroke-dasharray="2,2"></path>
                <path d="M15.1719971,4.76702881 L9.51916504,13.390625" id="Line-Copy" stroke="#FFFFFF" stroke-linecap="square" stroke-dasharray="2,2"></path>
            </g>
        </g>
    </g>
</svg>