<?xml version="1.0" encoding="UTF-8" standalone="no"?>
<svg width="45px" height="44px" viewBox="0 0 45 44" version="1.1" xmlns="http://www.w3.org/2000/svg" xmlns:xlink="http://www.w3.org/1999/xlink">
    <!-- Generator: Sketch 3.8.3 (29802) - http://www.bohemiancoding.com/sketch -->
    <title>google26</title>
    <desc>Created with Sketch.</desc>
    <defs>
        <filter x="-50%" y="-50%" width="200%" height="200%" filterUnits="objectBoundingBox" id="filter-1">
            <feOffset dx="0" dy="-2" in="SourceAlpha" result="shadowOffsetOuter1"></feOffset>
            <feGaussianBlur stdDeviation="3.5" in="shadowOffsetOuter1" result="shadowBlurOuter1"></feGaussianBlur>
            <feColorMatrix values="0 0 0 0 0   0 0 0 0 0   0 0 0 0 0  0 0 0 0.25 0" type="matrix" in="shadowBlurOuter1" result="shadowMatrixOuter1"></feColorMatrix>
            <feMerge>
                <feMergeNode in="shadowMatrixOuter1"></feMergeNode>
                <feMergeNode in="SourceGraphic"></feMergeNode>
            </feMerge>
        </filter>
    </defs>
    <g id="Page-1" stroke="none" stroke-width="1" fill="none" fill-rule="evenodd">
        <g id="desktop-homepage" transform="translate(-1312.000000, -2493.000000)" fill="#66942E">
            <g id="footer" filter="url(#filter-1)" transform="translate(-2.000000, 2340.000000)">
                <g id="Group-21" transform="translate(1253.000000, 160.000000)">
                    <g id="google26" transform="translate(68.000000, 2.000000)">
                        <polygon id="Shape" points="26.3522059 6.64801471 26.3522059 2.04720588 24.0514706 2.04720588 24.0514706 6.64801471 19.4506618 6.64801471 19.4506618 8.94852941 24.0514706 8.94852941 24.0514706 13.5493382 26.3522059 13.5493382 26.3522059 8.94852941 30.9525735 8.94852941 30.9525735 6.64801471"></polygon>
                        <path d="M17.2555147,19.0888235 C16.9380882,18.6633088 16.5877941,18.2677941 16.2041912,17.9027206 C15.8208088,17.5374265 15.4372059,17.2047794 15.0540441,16.9054412 C14.6706618,16.6058824 14.3201471,16.3182353 14.0027206,16.0425 C13.6852941,15.7672059 13.4276471,15.4793382 13.23,15.18 C13.0323529,14.8804412 12.9335294,14.5749265 12.9335294,14.2634559 C12.9335294,13.8319853 13.0713971,13.4276471 13.3469118,13.0502206 C13.6224265,12.6727941 13.9579412,12.3075 14.3532353,11.9538971 C14.7485294,11.6002941 15.1438235,11.2140441 15.5393382,10.7947059 C15.9344118,10.3751471 16.2699265,9.82125 16.5456618,9.13213235 C16.8209559,8.44323529 16.9588235,7.65551471 16.9588235,6.76897059 C16.9588235,5.71455882 16.7252206,4.70205882 16.2577941,3.73169118 C15.7905882,2.76110294 15.1316912,2.00625 14.2808824,1.46713235 L16.7071324,1.46713235 L19.1331618,0.0472058824 L11.2797794,0.0472058824 C10.1655882,0.0472058824 9.04522059,0.167205882 7.91933824,0.407205882 C6.25411765,0.778676471 4.85227941,1.62639706 3.71404412,2.95014706 C2.57580882,4.27411765 2.00669118,5.77477941 2.00669118,7.45213235 C2.00669118,9.22544118 2.64485294,10.6991912 3.92073529,11.8731618 C5.19661765,13.0471324 6.72727941,13.6343382 8.5125,13.6343382 C8.87183824,13.6343382 9.29117647,13.6043382 9.77051471,13.5445588 C9.74647059,13.6402941 9.70477941,13.7691176 9.64477941,13.9308088 C9.58477941,14.0925 9.53691176,14.2215441 9.50095588,14.3172794 C9.465,14.4130147 9.435,14.5297059 9.41117647,14.6675735 C9.38713235,14.8054412 9.37522059,14.9463971 9.37522059,15.09 C9.37522059,15.8808088 9.75838235,16.7735294 10.5253676,17.7679412 C9.61477941,17.7922059 8.71632353,17.8729412 7.82955882,18.0108088 C6.94301471,18.1486765 6.01455882,18.3644118 5.04397059,18.6580147 C4.07360294,18.9513971 3.20492647,19.3769118 2.43816176,19.9338971 C1.67139706,20.4911029 1.09632353,21.1528676 0.712941176,21.9198529 C0.269558824,22.8066176 0.0478676471,23.6152941 0.0478676471,24.3461029 C0.0478676471,25.1488235 0.227647059,25.8765441 0.586985294,26.5297059 C0.946323529,27.1824265 1.40757353,27.7158088 1.97073529,28.1289706 C2.53389706,28.5425735 3.18397059,28.8897794 3.92073529,29.1716912 C4.6575,29.4529412 5.38830882,29.6538971 6.11316176,29.7736765 C6.83801471,29.8934559 7.55382353,29.9532353 8.26080882,29.9532353 C11.4716912,29.9532353 13.9879412,29.1686029 15.8088971,27.5991176 C17.48625,26.1372794 18.3249265,24.4477941 18.3249265,22.5306618 C18.3249265,21.8475 18.2261029,21.2097794 18.0282353,20.6166176 C17.8305882,20.0230147 17.5731618,19.5141176 17.2555147,19.0888235 L17.2555147,19.0888235 Z M10.3272794,12.5563235 C9.71625,12.5563235 9.13522059,12.4005882 8.58397059,12.0888971 C8.03272059,11.7772059 7.56551471,11.3728676 7.18213235,10.8756618 C6.79897059,10.3784559 6.46345588,9.81838235 6.17580882,9.19522059 C5.88838235,8.57227941 5.67573529,7.94933824 5.53786765,7.32617647 C5.4,6.70323529 5.33117647,6.11007353 5.33117647,5.54691176 C5.33117647,4.39676471 5.63669118,3.40830882 6.24772059,2.58154412 C6.85875,1.75477941 7.72147059,1.34139706 8.83566176,1.34139706 C9.62647059,1.34139706 10.3422794,1.58691176 10.9833088,2.07816176 C11.6243382,2.56941176 12.1275,3.19235294 12.4930147,3.94720588 C12.8583088,4.70205882 13.14,5.48360294 13.3376471,6.2925 C13.5352941,7.10117647 13.6341176,7.86507353 13.6341176,8.58397059 C13.6341176,9.78220588 13.3736029,10.7441912 12.8523529,11.4690441 C12.3311029,12.1938971 11.4895588,12.5563235 10.3272794,12.5563235 L10.3272794,12.5563235 Z M15.2964706,26.0525735 C14.9671324,26.6157353 14.5208824,27.0560294 13.9577206,27.3732353 C13.3945588,27.6908824 12.7925735,27.9244853 12.1515441,28.0744853 C11.5105147,28.2244853 10.8366176,28.2992647 10.1296324,28.2992647 C9.36286765,28.2992647 8.60183824,28.2092647 7.84720588,28.0297059 C7.09257353,27.8501471 6.37058824,27.5770588 5.68169118,27.2119853 C4.99279412,26.8466912 4.43558824,26.3433088 4.01029412,25.7020588 C3.585,25.06125 3.37235294,24.3333088 3.37235294,23.5184559 C3.37235294,22.7997794 3.53404412,22.15875 3.85764706,21.5955882 C4.18125,21.0324265 4.59463235,20.5828676 5.09779412,20.2477941 C5.60095588,19.9122794 6.18794118,19.6365441 6.85897059,19.42125 C7.53,19.2052941 8.17698529,19.0557353 8.79992647,18.9719118 C9.42286765,18.8878676 10.0579412,18.8461765 10.7049265,18.8461765 C11.1004412,18.8461765 11.4,18.8583088 11.6036029,18.8819118 C11.6755147,18.9302206 11.8581618,19.0557353 12.1517647,19.2593382 C12.4453676,19.4631618 12.6430147,19.6010294 12.7449265,19.6729412 C12.8466176,19.7446324 13.0323529,19.8825 13.3019118,20.0861029 C13.5714706,20.2899265 13.7631618,20.4425735 13.8769853,20.5444853 C13.9905882,20.6461765 14.1553676,20.7990441 14.3711029,21.0026471 C14.5866176,21.2064706 14.7454412,21.3829412 14.8473529,21.5327206 C14.9490441,21.6825 15.075,21.8651471 15.2247794,22.0806618 C15.3745588,22.2966176 15.4793382,22.5033088 15.5393382,22.7009559 C15.5991176,22.8988235 15.6560294,23.1143382 15.7098529,23.3479412 C15.7636765,23.5819853 15.7905882,23.8244118 15.7905882,24.0761029 C15.7908088,24.8307353 15.6260294,25.4896324 15.2964706,26.0525735 L15.2964706,26.0525735 Z" id="Shape"></path>
                    </g>
                </g>
            </g>
        </g>
    </g>
</svg>