<?xml version="1.0" encoding="UTF-8" standalone="no"?>
<svg width="20px" height="18px" viewBox="0 0 20 18" version="1.1" xmlns="http://www.w3.org/2000/svg" xmlns:xlink="http://www.w3.org/1999/xlink">
    <!-- Generator: Sketch 3.8.3 (29802) - http://www.bohemiancoding.com/sketch -->
    <title>Group</title>
    <desc>Created with Sketch.</desc>
    <defs>
        <circle id="path-1" cx="4" cy="2" r="2"></circle>
        <mask id="mask-2" maskContentUnits="userSpaceOnUse" maskUnits="objectBoundingBox" x="0" y="0" width="4" height="4" fill="white">
            <use xlink:href="#path-1"></use>
        </mask>
        <rect id="path-3" x="3" y="11" width="1" height="4"></rect>
        <mask id="mask-4" maskContentUnits="userSpaceOnUse" maskUnits="objectBoundingBox" x="0" y="0" width="1" height="4" fill="white">
            <use xlink:href="#path-3"></use>
        </mask>
        <rect id="path-5" x="7" y="11" width="1" height="4"></rect>
        <mask id="mask-6" maskContentUnits="userSpaceOnUse" maskUnits="objectBoundingBox" x="0" y="0" width="1" height="4" fill="white">
            <use xlink:href="#path-5"></use>
        </mask>
        <rect id="path-7" x="12" y="11" width="1" height="4"></rect>
        <mask id="mask-8" maskContentUnits="userSpaceOnUse" maskUnits="objectBoundingBox" x="0" y="0" width="1" height="4" fill="white">
            <use xlink:href="#path-7"></use>
        </mask>
        <rect id="path-9" x="16" y="11" width="1" height="4"></rect>
        <mask id="mask-10" maskContentUnits="userSpaceOnUse" maskUnits="objectBoundingBox" x="0" y="0" width="1" height="4" fill="white">
            <use xlink:href="#path-9"></use>
        </mask>
    </defs>
    <g id="Page-1" stroke="none" stroke-width="1" fill="none" fill-rule="evenodd">
        <g id="Artboard-Copy-4" transform="translate(-5.000000, -8.000000)">
            <g id="Group" transform="translate(5.000000, 8.000000)">
                <path d="M1.5,9.51000977 L1.5,16.000385 C1.5,16.2820121 1.71761466,16.5 1.99079514,16.5 L18.0092049,16.5 C18.2750628,16.5 18.5,16.2746061 18.5,16.000385 L18.5,9.49902344 L1.5,9.51000977 Z M0,8 L20,8 L20,16.000385 C20,17.1047419 19.1017876,18 18.0092049,18 L1.99079514,18 C0.891309342,18 0,17.1125667 0,16.000385 L0,8 L0,8 Z" id="Rectangle-1" fill="#FFFFFF"></path>
                <use id="Oval-3" stroke="#FFFFFF" mask="url(#mask-2)" stroke-width="2" xlink:href="#path-1"></use>
                <path d="M4.36601366,4.00116511 C5.65253396,3.9725366 6.32117918,4.47073055 7.01763971,5.57985597 C7.06222621,5.65086074 7.2108678,5.89182131 7.22409206,5.91309082 C7.30324188,6.04039303 7.3658872,6.13800239 7.42875493,6.23087036 C7.92404207,6.96250662 8.44507656,7.36739044 9.36967245,7.59767598 L15,9 L9.15713917,9 L2.79523769,9 L2,9 L2,8.28584942 L2,6.51093412 C2,5.20239541 3.17624607,3.9623372 4.41364113,4.0013865 L4.36601366,4.00116511 Z M3,6.81559852 L3,8.09899881 L3,8.61538462 L3.57501802,8.61538462 C3.57501802,8.61538462 7.68243408,8.61538464 9.17516217,8.61538462 C7.0256958,8.19659424 6.68243408,6.64550781 5.96478271,5.82366943 C5.24713135,5.00183105 4.73844372,5.00183105 4.36138916,5.00183105 C3.40063477,5.00183105 3,5.86942437 3,6.81559852 Z" id="Combined-Shape" fill="#FFFFFF"></path>
                <path d="M11.6023435,1 C13.5890922,4 9.54275226,4 11.6023435,7" id="Line" stroke="#FFFFFF" stroke-linecap="square" transform="translate(11.584133, 4.000000) scale(-1, 1) translate(-11.584133, -4.000000) "></path>
                <path d="M15.6023435,1 C17.5890922,4 13.5427523,4 15.6023435,7" id="Line-Copy" stroke="#FFFFFF" stroke-linecap="square" transform="translate(15.584133, 4.000000) scale(-1, 1) translate(-15.584133, -4.000000) "></path>
                <use id="Rectangle-6" stroke="#FFFFFF" mask="url(#mask-4)" stroke-width="2" fill="#D8D8D8" xlink:href="#path-3"></use>
                <use id="Rectangle-6-Copy-2" stroke="#FFFFFF" mask="url(#mask-6)" stroke-width="2" fill="#D8D8D8" xlink:href="#path-5"></use>
                <use id="Rectangle-6-Copy-3" stroke="#FFFFFF" mask="url(#mask-8)" stroke-width="2" fill="#D8D8D8" xlink:href="#path-7"></use>
                <use id="Rectangle-6-Copy-5" stroke="#FFFFFF" mask="url(#mask-10)" stroke-width="2" fill="#D8D8D8" xlink:href="#path-9"></use>
            </g>
        </g>
    </g>
</svg>