<?xml version="1.0" encoding="UTF-8" standalone="no"?>
<svg width="49px" height="44px" viewBox="0 0 49 44" version="1.1" xmlns="http://www.w3.org/2000/svg" xmlns:xlink="http://www.w3.org/1999/xlink">
    <!-- Generator: Sketch 3.8.3 (29802) - http://www.bohemiancoding.com/sketch -->
    <title>twitter16</title>
    <desc>Created with Sketch.</desc>
    <defs>
        <filter x="-50%" y="-50%" width="200%" height="200%" filterUnits="objectBoundingBox" id="filter-1">
            <feOffset dx="0" dy="-2" in="SourceAlpha" result="shadowOffsetOuter1"></feOffset>
            <feGaussianBlur stdDeviation="3.5" in="shadowOffsetOuter1" result="shadowBlurOuter1"></feGaussianBlur>
            <feColorMatrix values="0 0 0 0 0   0 0 0 0 0   0 0 0 0 0  0 0 0 0.25 0" type="matrix" in="shadowBlurOuter1" result="shadowMatrixOuter1"></feColorMatrix>
            <feMerge>
                <feMergeNode in="shadowMatrixOuter1"></feMergeNode>
                <feMergeNode in="SourceGraphic"></feMergeNode>
            </feMerge>
        </filter>
    </defs>
    <g id="Page-1" stroke="none" stroke-width="1" fill="none" fill-rule="evenodd">
        <g id="desktop-homepage" transform="translate(-1246.000000, -2492.000000)" fill="#66942E">
            <g id="footer" filter="url(#filter-1)" transform="translate(-2.000000, 2340.000000)">
                <g id="Group-21" transform="translate(1253.000000, 160.000000)">
                    <g id="twitter16">
                        <path d="M38.1070353,4.48608145 C36.6431307,5.11536652 35.1786465,5.50834389 33.7153216,5.66617195 C35.3681919,4.67518552 36.4860457,3.27529412 37.0685934,1.46649774 C35.5568678,2.36278733 33.9434137,2.9761448 32.2276515,3.30657014 C30.7162157,1.70222624 28.8590191,0.899764706 26.6549022,0.899764706 C24.5455581,0.899764706 22.7471959,1.64285973 21.2592359,3.12933937 C19.7715657,4.615819 19.0278756,6.41274208 19.0278756,8.52039819 C19.0278756,9.08655204 19.0907675,9.66863348 19.2168413,10.2663529 C16.0997767,10.1091041 13.1757353,9.32662443 10.4444274,7.91891403 C7.71311947,6.51091403 5.39510156,4.63522172 3.49037367,2.29154751 C2.79769264,3.47105882 2.45135213,4.75308597 2.45135213,6.13733937 C2.45135213,7.44282353 2.75827649,8.65419005 3.37241502,9.77085973 C3.98626372,10.8875294 4.81284375,11.7919276 5.85186528,12.4840543 C4.62387805,12.4368507 3.47472313,12.1142443 2.40440053,11.5165249 L2.40440053,11.6109321 C2.40440053,13.4512941 2.98289063,15.0672217 4.13987081,16.4595837 C5.29685099,17.8519457 6.7569878,18.728543 8.51999143,19.0902443 C7.8589013,19.2631312 7.18969607,19.3497195 6.51295541,19.3497195 C6.07213205,19.3497195 5.59189253,19.3103348 5.07252668,19.2321448 C5.56059146,20.7577195 6.45788872,22.0119457 7.76441845,22.9951131 C9.07094817,23.9785701 10.5507931,24.4853575 12.2036633,24.5172127 C9.43322904,26.6874208 6.27703811,27.7728145 2.73509051,27.7728145 C2.05806002,27.7728145 1.44421132,27.7418281 0.893254573,27.6786968 C4.43520217,29.9592398 8.33914082,31.0993665 12.6053603,31.0993665 C15.3129026,31.0993665 17.8552449,30.6710588 20.2318074,29.8138643 C22.6092393,28.9566697 24.6397511,27.8084344 26.3242123,26.3688688 C28.0083836,24.9298824 29.4606951,23.2742805 30.6805673,21.4023529 C31.9004394,19.5307149 32.8093296,17.576543 33.4078176,15.5395475 C34.0060158,13.5022624 34.3051149,11.4617919 34.3051149,9.41668778 C34.3051149,8.97621719 34.2972896,8.64608145 34.2813493,8.42570136 C35.7771345,7.34088688 37.0523632,6.02729412 38.1070353,4.48608145 L38.1070353,4.48608145 Z" id="Shape"></path>
                    </g>
                </g>
            </g>
        </g>
    </g>
</svg>