<?xml version="1.0" encoding="UTF-8" standalone="no"?>
<svg width="20px" height="19px" viewBox="0 0 20 19" version="1.1" xmlns="http://www.w3.org/2000/svg" xmlns:xlink="http://www.w3.org/1999/xlink">
    <!-- Generator: Sketch 3.8.3 (29802) - http://www.bohemiancoding.com/sketch -->
    <title>paw - FontAwesome</title>
    <desc>Created with Sketch.</desc>
    <defs>
        <path d="M14.375,10.1346154 C14.375,8.45192308 13.2091346,6 11.25,6 C9.69951923,6 9.00240385,7.59855769 9.00240385,8.94471154 C9.00240385,10.6274038 10.1802885,13.0793269 12.1274038,13.0793269 C13.6778846,13.0793269 14.375,11.4807692 14.375,10.1346154 L14.375,10.1346154 Z M10.2644231,15.9399038 C10.2644231,14.1971154 8.85817308,11.8293269 6.93509615,11.8293269 C5.625,11.8293269 5,13.0552885 5,14.2211538 C5,15.9639423 6.40625,18.3197115 8.32932692,18.3197115 C9.65144231,18.3197115 10.2644231,17.1057692 10.2644231,15.9399038 L10.2644231,15.9399038 Z M15,16 C12.0225694,16 8,20.3043478 8,23.2024457 C8,24.5842391 9.04513889,24.9877717 10.2239583,24.9877717 C11.9861111,24.9877717 13.3715278,23.8994565 15,23.8994565 C16.5555556,23.8994565 17.8680556,25 19.4965278,25 C20.7361111,25 22,24.7554348 22,23.2024457 C22,20.3165761 17.9774306,16 15,16 L15,16 Z M17.8725962,13.0793269 C19.8197115,13.0793269 20.9975962,10.6274038 20.9975962,8.94471154 C20.9975962,7.59855769 20.3004808,6 18.75,6 C16.7908654,6 15.625,8.45192308 15.625,10.1346154 C15.625,11.4807692 16.3221154,13.0793269 17.8725962,13.0793269 L17.8725962,13.0793269 Z M23.0649038,11.8293269 C21.1418269,11.8293269 19.7355769,14.1971154 19.7355769,15.9399038 C19.7355769,17.1057692 20.3485577,18.3197115 21.6706731,18.3197115 C23.59375,18.3197115 25,15.9639423 25,14.2211538 C25,13.0552885 24.375,11.8293269 23.0649038,11.8293269 L23.0649038,11.8293269 Z" id="path-1"></path>
        <mask id="mask-2" maskContentUnits="userSpaceOnUse" maskUnits="objectBoundingBox" x="0" y="0" width="20" height="19" fill="white">
            <use xlink:href="#path-1"></use>
        </mask>
    </defs>
    <g id="Page-1" stroke="none" stroke-width="1" fill="none" fill-rule="evenodd">
        <g id="Artboard-Copy-2" transform="translate(-5.000000, -6.000000)" stroke="#FFFFFF" stroke-width="2">
            <use id="paw---FontAwesome" mask="url(#mask-2)" xlink:href="#path-1"></use>
        </g>
    </g>
</svg>