<?xml version="1.0" encoding="UTF-8" standalone="no"?>
<svg width="19px" height="13px" viewBox="0 0 19 13" version="1.1" xmlns="http://www.w3.org/2000/svg" xmlns:xlink="http://www.w3.org/1999/xlink">
    <!-- Generator: Sketch 3.8.3 (29802) - http://www.bohemiancoding.com/sketch -->
    <title>icon-wifi</title>
    <desc>Created with Sketch.</desc>
    <defs></defs>
    <g id="Page-1" stroke="none" stroke-width="1" fill="none" fill-rule="evenodd">
        <g id="Artboard-Copy-9" transform="translate(-6.000000, -9.000000)" fill="#FFFFFF">
            <path d="M9.359375,16.109375 C10.9739664,14.5208254 12.9205615,13.7265625 15.1992188,13.7265625 C17.477876,13.7265625 19.4114504,14.5208254 21,16.109375 L19.359375,17.7890625 C18.2135359,16.6432234 16.8203207,16.0703125 15.1796875,16.0703125 C13.5390543,16.0703125 12.1458391,16.6432234 11,17.7890625 L9.359375,16.109375 Z M12.6796875,19.46875 C13.3567742,18.7916633 14.1900992,18.453125 15.1796875,18.453125 C16.1692758,18.453125 17.0026008,18.7916633 17.6796875,19.46875 L15.1796875,21.96875 L12.6796875,19.46875 Z M6,12.7890625 C8.55209609,10.2630082 11.6184717,9 15.1992188,9 C18.7799658,9 21.8333207,10.2630082 24.359375,12.7890625 L22.6796875,14.46875 C20.5963438,12.411448 18.0963687,11.3828125 15.1796875,11.3828125 C12.2630063,11.3828125 9.76303125,12.411448 7.6796875,14.46875 L6,12.7890625 Z" id="icon-wifi"></path>
        </g>
    </g>
</svg>