<?xml version="1.0" encoding="UTF-8" standalone="no"?>
<svg width="18px" height="18px" viewBox="0 0 18 18" version="1.1" xmlns="http://www.w3.org/2000/svg" xmlns:xlink="http://www.w3.org/1999/xlink">
    <!-- Generator: Sketch 3.8.3 (29802) - http://www.bohemiancoding.com/sketch -->
    <title>icon-ve</title>
    <desc>Created with Sketch.</desc>
    <defs></defs>
    <g id="Page-1" stroke="none" stroke-width="1" fill="none" fill-rule="evenodd">
        <g id="Artboard-Copy-14" transform="translate(-6.000000, -6.000000)" fill="#FFFFFF">
            <path d="M22.7100962,17.0199705 C22.7281927,17.0588653 22.7584754,17.0584994 22.7853809,17.0637623 C23.1524323,17.135135 23.3474126,17.3900052 23.4831501,17.7116888 C23.5151778,17.7875645 23.4985729,17.833073 23.4303523,17.873375 C23.1260334,18.0530731 22.8140876,18.1413321 22.471465,17.9770004 C22.4021468,17.9437345 22.3331382,17.8952427 22.2324678,17.911932 C22.4063121,18.1294554 22.5403891,18.3611351 22.5955228,18.6281354 C22.7166819,19.2147929 22.5834773,19.7636814 22.3259334,20.2882536 C22.0002815,20.9515186 21.5172213,21.4909508 20.9662783,21.9729977 C20.2161898,22.6292549 19.3932088,23.1696158 18.4472676,23.5013186 C17.8188165,23.7216846 17.1768846,23.8173735 16.5146047,23.6537173 C16.088592,23.5484313 15.7469263,23.3229995 15.4758734,22.9386959 C15.4758734,23.0526783 15.472271,23.1344079 15.4764926,23.2157435 C15.4944483,23.559914 15.2884638,23.7794356 15.0545044,23.9851949 C14.9929258,24.0393999 14.9509071,23.9974938 14.9090854,23.9614697 C14.6530894,23.7409631 14.4715056,23.4853892 14.5162824,23.1230097 C14.5225022,23.0726604 14.5171267,23.0208477 14.5171267,22.949081 C14.451805,23.0254914 14.3981348,23.0920515 14.3405807,23.154981 C13.9555735,23.575562 13.45346,23.7112151 12.908793,23.73176 C12.3366015,23.7533745 11.7917375,23.6202824 11.2706269,23.3966237 C9.98434274,22.8445268 8.89177231,22.0346327 8.04599486,20.9119202 C7.67145719,20.4147319 7.4167558,19.8624098 7.35889215,19.2304971 C7.31780221,18.7818849 7.41810671,18.3758262 7.68353088,18.0109981 C7.70399142,17.9828825 7.74226698,17.9613243 7.72766035,17.9076823 C7.61429713,17.9152529 7.51945253,17.9793364 7.41681209,18.0163736 C7.08609431,18.1357877 6.80344613,18.0172179 6.52794648,17.849312 C6.46394748,17.8102766 6.48930505,17.7619818 6.50827397,17.7155164 C6.63790431,17.397998 6.82784681,17.1431278 7.18836887,17.0671114 C7.21924262,17.0606102 7.25532297,17.0633683 7.27589609,17.0306089 C6.34368903,16.5791824 6.03697791,15.7437618 6.0045844,14.8048847 C5.94480697,13.0705794 6.47109601,11.4997614 7.49705006,10.1030972 C7.84642718,9.62749511 8.29785372,9.26444011 8.8614333,9.05704845 C9.27948129,8.90321444 9.6949682,8.91174202 10.123148,9.05730175 C10.0787089,9.00447583 10.0341573,8.95173435 9.98983078,8.89879587 C9.94468813,8.84490049 9.89960176,8.79094883 9.85474055,8.7368283 C9.62601589,8.46107536 9.64847464,8.14986123 9.72384374,7.82966923 C9.74270008,7.74954383 9.79800265,7.7592253 9.85400881,7.76324986 C10.2271112,7.78984575 10.5345259,7.92606174 10.7131827,8.27794366 C10.7337558,8.31844259 10.7601266,8.35598642 10.8022297,8.42513573 C10.818919,8.29429521 10.8256735,8.19522903 10.8448675,8.09863952 C10.9572457,7.53339945 11.315657,7.14090603 11.7641285,6.81891283 C12.2964684,6.43672003 12.9050781,6.23706792 13.5428166,6.12899574 C14.6687655,5.93818078 15.79266,5.94881913 16.9044245,6.22989126 C17.5439923,6.39157738 18.1320289,6.65995665 18.6056609,7.13817608 C18.9291457,7.46478487 19.1496524,7.84011058 19.1725333,8.31168808 C19.1738279,8.33842468 19.1827776,8.36479542 19.1924591,8.41241473 C19.2502664,8.3233959 19.3000247,8.25146035 19.3449703,8.17668227 C19.5339841,7.86214717 19.8427778,7.78914216 20.174931,7.76060434 C20.2448683,7.75458157 20.2609103,7.79868291 20.2736031,7.85221241 C20.355192,8.19621407 20.3480716,8.52186597 20.0882481,8.79975784 C20.0118376,8.88148743 19.941844,8.9692398 19.8531348,9.07264012 C20.0321575,9.0329855 20.1822483,8.97230747 20.3434842,8.95570263 C20.8675499,8.90166654 21.3193141,9.08668387 21.737334,9.37577698 C22.2612871,9.73810025 22.6479266,10.2260011 22.9514856,10.7768597 C23.6318901,12.0117252 24.0327422,13.3244364 23.9979002,14.7485408 C23.9897666,15.0819885 23.9339856,15.411074 23.8230991,15.7268193 C23.6211954,16.3019096 23.3075328,16.7850261 22.7100962,17.0199705 L22.7100962,17.0199705 Z M10.5312893,13.0619955 C10.5276025,13.0680464 10.5238875,13.0740973 10.5201725,13.0801482 C10.5238594,13.0820339 10.5275744,13.0839477 10.5312893,13.0858333 C10.5302762,13.0782626 10.5292348,13.0707482 10.5282217,13.0631775 C10.1979542,12.4821769 10.2308543,11.9106327 10.5720697,11.3466028 C10.7238492,11.0957571 10.9181821,10.8812451 11.1328349,10.6836193 C11.1720111,10.6475671 11.2256813,10.6217592 11.1738967,10.5481914 C10.8831994,10.1350122 10.5296288,9.80271841 10.027262,9.67148387 C9.44890696,9.52040796 8.79836305,9.75827935 8.67984951,10.5091278 C8.63006313,10.8244509 8.61098163,11.1422225 8.58258454,11.4592343 C8.51776937,12.1828114 8.35507007,12.880271 8.05683023,13.5450275 C7.83553553,14.038332 7.52857112,14.482413 7.26227449,14.9498534 C7.16256101,15.1248797 7.07067151,15.3057036 7.05834452,15.5126168 C7.03253666,15.9466786 7.28166557,16.3296876 7.71899206,16.5281576 C8.18544739,16.7398553 8.65860094,16.7011294 9.13245808,16.5575398 C9.34187609,16.4940474 9.33923058,16.4912893 9.29724003,16.2726964 C9.22415058,15.8920796 9.19904631,15.5098306 9.29270888,15.1293827 C9.42644821,14.5862918 9.76394865,14.2177487 10.2838491,14.0099631 C10.234316,13.970618 10.1811523,13.9677755 10.1310564,13.9596701 C9.73867552,13.896234 9.50598259,13.6517488 9.36320909,13.2971651 C9.32977426,13.2141127 9.34649168,13.1700958 9.41974999,13.1274017 C9.72055091,12.9519532 10.0279656,12.8639757 10.3665355,13.0242265 C10.4151117,13.0471919 10.4662772,13.0978226 10.5312893,13.0619955 L10.5312893,13.0619955 Z M19.4694785,13.0648099 C19.5308601,13.0922219 19.5773818,13.047023 19.6235939,13.0252397 C19.967089,12.8633847 20.2794007,12.9507712 20.5812993,13.1357604 C20.6245844,13.1622719 20.6723445,13.1836893 20.6433564,13.2544146 C20.5169063,13.5632084 20.3543477,13.8348242 19.9975406,13.9195089 C19.9475572,13.9313574 19.8990373,13.9494539 19.8492509,13.9623156 C19.8041927,13.9739672 19.7528021,13.9685073 19.7151739,14.0141565 C20.2936134,14.2481441 20.6306354,14.6730873 20.7272812,15.2816406 C20.7859328,15.651225 20.753089,16.0203028 20.6708247,16.3840895 C20.6557959,16.4505652 20.6581318,16.4850695 20.7289416,16.5113277 C21.1700676,16.6748431 21.6188767,16.7375757 22.0778176,16.6030202 C22.6666422,16.4303579 23.2401003,15.8299381 22.7571245,14.997726 C22.6537242,14.8195757 22.5493389,14.6417914 22.4388463,14.4679753 C21.9926545,13.7661252 21.664723,13.0168247 21.5090033,12.1958701 C21.410106,11.6743373 21.3937826,11.1439112 21.3304591,10.618579 C21.2422001,9.88636178 20.702008,9.49620429 19.9903921,9.66574254 C19.4742911,9.7887028 19.1122492,10.1262032 18.8175274,10.5496548 C18.7732009,10.6133161 18.8091405,10.6407 18.8494987,10.6756265 C18.9774123,10.786316 19.0930833,10.9090793 19.2001705,11.0396384 C19.4990576,11.4040161 19.7006235,11.8068665 19.6931935,12.2925722 C19.6889438,12.5709706 19.5870351,12.8205498 19.4729402,13.0671458 C19.4671426,13.0726339 19.4613449,13.0781219 19.4555755,13.0836099 C19.4600785,13.0843417 19.4655102,13.0870435 19.4689719,13.0854674 C19.481524,13.0797824 19.4813833,13.0722398 19.4694785,13.0648099 L19.4694785,13.0648099 Z M17.4591388,19.270208 C17.4516244,19.2960159 17.4465304,19.3072734 17.4452076,19.3189531 C17.3686846,19.9976126 16.9888559,20.4381194 16.3683414,20.6884866 C16.1058161,20.7944199 15.8303445,20.848062 15.5506515,20.8821159 C15.4962495,20.8887297 15.4520637,20.8929232 15.4483769,20.9663222 C15.4196702,21.5366844 15.5131639,22.0734148 15.9133406,22.5097844 C16.2827843,22.9126066 16.9156539,23.1092192 17.444898,22.5541953 C17.5935536,22.3982787 17.7390289,22.2382249 17.8736969,22.0702627 C18.5860165,21.181763 19.4617389,20.5128412 20.517638,20.0815093 C20.7991041,19.9665419 21.0845385,19.8592296 21.3496813,19.7080974 C21.8620391,19.4161055 22.0353768,18.916947 21.7947473,18.3773741 C21.5346986,17.7942065 21.0327258,17.5135002 20.4486575,17.3462979 C20.3889364,17.3292146 20.3564303,17.3487183 20.330538,17.4079891 C20.2593342,17.5711387 20.1750435,17.7280967 20.0760899,17.8764426 C19.8052622,18.2823888 19.4655384,18.5975993 18.9730219,18.7108218 C18.7239774,18.7680945 18.4753832,18.7508423 18.2001932,18.6894044 C18.252625,18.7521932 18.2828796,18.7931706 18.3178342,18.8295324 C18.5748715,19.0968703 18.6058579,19.4137414 18.5307984,19.7584185 C18.5102534,19.8528409 18.4747359,19.8926644 18.3722362,19.8831799 C18.0340603,19.8519122 17.7414492,19.7459226 17.5628205,19.431078 C17.5335791,19.3794904 17.4986245,19.3311112 17.4591388,19.270208 L17.4591388,19.270208 Z M11.7740914,18.7066284 C11.7605542,18.7019565 11.755826,18.6985793 11.751717,18.6991985 C11.7287517,18.702632 11.7058426,18.7066847 11.6830743,18.7111877 C11.1767674,18.8114359 10.7262696,18.6949206 10.333551,18.360319 C10.0724328,18.1378704 9.8842071,17.8599222 9.73178029,17.5556878 C9.61152183,17.3156493 9.6091859,17.3091199 9.35127612,17.4040208 C8.83376794,17.5944699 8.39255761,17.880045 8.1790306,18.4201808 C7.97279284,18.9418824 8.13926341,19.4146983 8.62052238,19.6972339 C8.82304516,19.8161133 9.04014642,19.9042878 9.25750098,19.9909144 C10.1371636,20.3413891 10.9394307,20.811081 11.6044687,21.4966639 C11.9116864,21.8133661 12.1790243,22.1646852 12.4785025,22.4879167 C12.9761974,23.025013 13.5920963,23.0346381 14.0877086,22.4950934 C14.4847051,22.062889 14.5720916,21.5279317 14.5428502,20.9630012 C14.5389663,20.8878573 14.4885326,20.8879417 14.4371421,20.8814968 C14.1670179,20.8477524 13.9011153,20.7963618 13.6461606,20.6969016 C13.1176763,20.4908327 12.7388889,20.1436227 12.5930196,19.5783826 C12.5683094,19.4825811 12.5548848,19.3838808 12.53555,19.2828446 C12.5239829,19.291147 12.519311,19.29292 12.5170877,19.2963254 C12.4862702,19.3432412 12.453933,19.3893126 12.4255077,19.4376355 C12.2396461,19.753634 11.9428697,19.8626068 11.5981926,19.8810692 C11.548941,19.8837147 11.49513,19.8944937 11.4776246,19.8196875 C11.4040004,19.5049836 11.377883,19.1981036 11.5995435,18.9241237 C11.6573509,18.8526103 11.7146517,18.7806748 11.7740914,18.7066284 L11.7740914,18.7066284 Z M15.447814,10.2112538 C15.4581147,10.2155879 15.4683871,10.2199784 15.4787159,10.2243125 C15.4890447,10.2090304 15.4977411,10.1922849 15.5099274,10.1787196 C15.8929082,9.75307275 16.3675534,9.58066383 16.9356923,9.6559485 C17.3093012,9.70545344 17.6450286,9.85346168 17.9693859,10.0346233 C18.0169207,10.0611911 18.0575604,10.1031253 18.1094013,10.0333006 C18.4441999,9.58235246 18.6610479,9.09245335 18.5648242,8.51736296 C18.478873,8.00356976 18.0784431,7.50272271 17.3350528,7.65410821 C17.129012,7.69607061 16.9230275,7.74034081 16.7198575,7.79415175 C15.8726447,8.01842969 15.0162007,8.09498082 14.1450657,7.97294931 C13.6853649,7.90852815 13.2402989,7.77861638 12.7889849,7.67667954 C12.1216673,7.52594135 11.644461,7.76240555 11.4671832,8.36001098 C11.2772126,9.00039498 11.5187427,9.54258527 11.8949408,10.0457401 C11.941941,10.1086134 11.9770926,10.0591928 12.012019,10.0391263 C12.1868483,9.93879368 12.3670249,9.84935268 12.5565734,9.78124469 C13.0201581,9.6146334 13.4853751,9.56586019 13.9511831,9.77561593 C14.1808365,9.87904439 14.3643059,10.0429257 14.5321274,10.2313766 C14.5389382,10.2172203 14.5424843,10.2134209 14.5422029,10.209931 C14.537728,10.1540375 14.5357579,10.0977499 14.5274274,10.0424191 C14.4691416,9.65631437 14.6324037,9.36150807 14.9052016,9.1090019 C14.9585059,9.05966582 14.9993144,9.04871789 15.058726,9.10033361 C15.3341975,9.33966848 15.5183987,9.61809509 15.4668392,10.004622 C15.4576362,10.073124 15.4540057,10.1423578 15.447814,10.2112538 L15.447814,10.2112538 Z M15.8844932,19.3884401 C16.0021343,19.3892281 16.1191281,19.3877928 16.2353057,19.3698933 C16.5361629,19.3235968 16.734633,19.1495555 16.7912583,18.8707912 C16.8374704,18.6432486 16.8350782,18.4142988 16.7787061,18.1877131 C16.6782891,17.7839903 16.4534201,17.4448856 16.2208116,17.1091301 C16.1698151,17.0355059 16.1264173,17.0793258 16.0794453,17.1024037 C15.4338547,17.4191622 14.7755712,17.4354856 14.103638,17.1928298 C14.0011383,17.1558207 13.8983572,17.0352808 13.8040754,17.0863336 C13.7118201,17.1362607 13.6591349,17.2646527 13.5967682,17.3634938 C13.3492716,17.7558183 13.1468896,18.1607231 13.1702208,18.6470199 C13.1920322,19.1026961 13.4000149,19.3392447 13.8535804,19.3791526 C13.9603017,19.3885245 14.0688523,19.3842748 14.1761365,19.3782239 C14.5172675,19.3589454 14.8556966,19.2895709 15.1994169,19.3198537 C15.4280289,19.3399202 15.6561626,19.3653903 15.8844932,19.3884401 L15.8844932,19.3884401 Z M11.6392544,14.324076 C11.352441,14.3194323 11.0840617,14.3917619 10.8339759,14.5296383 C10.6224752,14.6462099 10.5213264,14.8286381 10.5219456,15.0709562 C10.5225929,15.3218581 10.6149327,15.5466708 10.7170384,15.7675433 C10.8883216,16.1380565 11.0292939,16.5164498 11.0961354,16.9221145 C11.1347487,17.1564117 11.188644,17.3898645 11.3061444,17.6016466 C11.4648754,17.8876439 11.685157,17.9952095 12.0068124,17.9399913 C12.283663,17.8924846 12.5349308,17.786101 12.7554656,17.6092454 C13.0134598,17.4023041 13.2208233,17.1496853 13.4201096,16.888539 C13.4664343,16.8278047 13.4507582,16.7966495 13.4026041,16.75055 C13.3115027,16.6633042 13.2195006,16.5748764 13.1420489,16.4758383 C12.7294608,15.9483672 12.561977,15.3507055 12.6594671,14.6867933 C12.6785205,14.5570785 12.6437066,14.5067011 12.5213937,14.47594 C12.2307808,14.4028787 11.9418003,14.3257365 11.6392544,14.324076 L11.6392544,14.324076 Z M19.4719551,15.1215024 C19.4754168,14.8438076 19.3768291,14.6525704 19.1608536,14.5317773 C18.9545314,14.4163595 18.7328708,14.3449024 18.495309,14.328776 C18.1340271,14.3042346 17.7901099,14.3922684 17.4454046,14.4837639 C17.3348839,14.5131179 17.3055018,14.563045 17.3326887,14.6683591 C17.3488995,14.7311761 17.3532055,14.7979332 17.3563295,14.8632268 C17.3915655,15.6037746 17.1433372,16.231916 16.6010343,16.7389266 C16.5363599,16.7993794 16.5248209,16.8378802 16.5845984,16.9062696 C16.6984963,17.0366598 16.8004894,17.1774914 16.9155413,17.3067559 C17.1823445,17.6065999 17.4955006,17.8341425 17.895818,17.92682 C18.2880862,18.0176964 18.5464745,17.8968469 18.7200373,17.5312871 C18.7826009,17.3994897 18.8278843,17.2612192 18.8522287,17.1183894 C18.9384613,16.6126735 19.0924923,16.1302043 19.3175864,15.6686742 C19.4058735,15.487794 19.4622174,15.2936299 19.4719551,15.1215024 L19.4719551,15.1215024 Z M14.7833108,12.4137875 C14.7702802,12.2833691 14.7591634,12.1527538 14.7438813,12.0225887 C14.6984291,11.6353863 14.5577664,11.2898086 14.2916386,10.9998993 C14.051769,10.7385842 13.7842904,10.6896984 13.4681511,10.8516941 C13.2699061,10.9532651 13.102732,11.0980368 12.9436351,11.2501259 C12.6708372,11.5110189 12.3712465,11.7322291 12.0382772,11.9103794 C11.8399478,12.0164815 11.6458401,12.1313082 11.4820432,12.2888009 C11.2214879,12.5392807 11.1792159,12.8131199 11.3566344,13.127655 C11.4895857,13.3633312 11.6616287,13.5638276 11.8917043,13.7132712 C12.1489949,13.8803609 12.4299826,13.9941463 12.7149104,14.1017682 C12.7932346,14.1313473 12.8181137,14.0953514 12.8485935,14.032253 C13.1957472,13.3131789 13.7632951,12.8748392 14.5439196,12.7114082 C14.785703,12.6607775 14.7858719,12.6616218 14.7833108,12.4137875 L14.7833108,12.4137875 Z M15.2076348,12.3778197 C15.2076348,12.4386385 15.2129259,12.5000201 15.2063684,12.5601353 C15.1969121,12.6468745 15.2266319,12.6828141 15.3168046,12.6956758 C16.1655935,12.8168349 16.7718391,13.272483 17.1459264,14.0398237 C17.1797271,14.10917 17.2110512,14.1262251 17.2837466,14.0988131 C17.5158767,14.0113421 17.7451924,13.9187209 17.9627439,13.7981528 C18.2578035,13.6346655 18.4863312,13.4055469 18.6448933,13.1085172 C18.8077896,12.803354 18.7686135,12.5510167 18.524072,12.3043644 C18.3638775,12.1427627 18.1706703,12.026163 17.9722002,11.9210177 C17.6258064,11.7375483 17.315521,11.5076979 17.0326195,11.2373204 C16.9279527,11.1372692 16.8147865,11.044648 16.6977646,10.9592315 C16.2674177,10.6451186 15.9355461,10.6970158 15.6066013,11.1121087 C15.3110352,11.4850984 15.2401972,11.9231004 15.2076348,12.3778197 L15.2076348,12.3778197 Z" id="icon-ve"></path>
        </g>
    </g>
</svg>