<?xml version="1.0" encoding="UTF-8" standalone="no"?>
<svg width="42px" height="44px" viewBox="0 0 42 44" version="1.1" xmlns="http://www.w3.org/2000/svg" xmlns:xlink="http://www.w3.org/1999/xlink">
    <!-- Generator: Sketch 3.8.3 (29802) - http://www.bohemiancoding.com/sketch -->
    <title>thumbs26</title>
    <desc>Created with Sketch.</desc>
    <defs>
        <filter x="-50%" y="-50%" width="200%" height="200%" filterUnits="objectBoundingBox" id="filter-1">
            <feOffset dx="0" dy="-2" in="SourceAlpha" result="shadowOffsetOuter1"></feOffset>
            <feGaussianBlur stdDeviation="3.5" in="shadowOffsetOuter1" result="shadowBlurOuter1"></feGaussianBlur>
            <feColorMatrix values="0 0 0 0 0   0 0 0 0 0   0 0 0 0 0  0 0 0 0.25 0" type="matrix" in="shadowBlurOuter1" result="shadowMatrixOuter1"></feColorMatrix>
            <feMerge>
                <feMergeNode in="shadowMatrixOuter1"></feMergeNode>
                <feMergeNode in="SourceGraphic"></feMergeNode>
            </feMerge>
        </filter>
    </defs>
    <g id="Page-1" stroke="none" stroke-width="1" fill="none" fill-rule="evenodd">
        <g id="desktop-homepage" transform="translate(-1371.000000, -2493.000000)" fill="#66942E">
            <g id="footer" filter="url(#filter-1)" transform="translate(-2.000000, 2340.000000)">
                <g id="Group-21" transform="translate(1253.000000, 160.000000)">
                    <g id="thumbs26" transform="translate(127.000000, 2.000000)">
                        <path d="M27.0175556,16.7611765 C27.6091111,15.8744118 27.9044444,14.8980882 27.9044444,13.8317647 C27.9044444,12.5975735 27.4462222,11.5255147 26.5291111,10.6140441 C25.6115556,9.70345588 24.5253333,9.24838235 23.27,9.24838235 L20.0835556,9.24838235 C20.6626667,8.06227941 20.9526667,6.91191176 20.9526667,5.79772059 C20.9526667,4.39588235 20.7411111,3.28169118 20.3188889,2.45492647 C19.8962222,1.62794118 19.2806667,1.02 18.4717778,0.630441176 C17.6628889,0.241102941 16.7517778,0.0465441176 15.738,0.0465441176 C15.1222222,0.0465441176 14.5791111,0.268235294 14.1084444,0.711617647 C13.5895556,1.21477941 13.2153333,1.86198529 12.986,2.65279412 C12.7566667,3.44338235 12.5724444,4.20132353 12.4337778,4.92617647 C12.2951111,5.65102941 12.0806667,6.16323529 11.7911111,6.46279412 C11.1995556,7.09786765 10.5537778,7.86485294 9.85377778,8.76330882 C8.63466667,10.3327941 7.80777778,11.2614706 7.37333333,11.5491176 L2.41266667,11.5491176 C1.77288889,11.5491176 1.22666667,11.7741176 0.774,12.2230147 C0.321555556,12.6723529 0.0951111111,13.2145588 0.0951111111,13.8496324 L0.0951111111,25.3517647 C0.0951111111,25.9868382 0.321333333,26.5288235 0.774,26.9781618 C1.22688889,27.4275 1.77288889,27.6525 2.41266667,27.6525 L7.62666667,27.6525 C7.89222222,27.6525 8.72488889,27.8920588 10.1251111,28.3711765 C11.6097778,28.8864706 12.9164444,29.2788971 14.0448889,29.5484559 C15.1735556,29.8182353 16.3171111,29.9530147 17.476,29.9530147 L19.1593333,29.9530147 L19.8115556,29.9530147 C21.5133333,29.9530147 22.8831111,29.4703676 23.9213333,28.5059559 C24.9591111,27.5413235 25.4722222,26.2263971 25.4604444,24.5609559 C26.1844444,23.6382353 26.5466667,22.5719118 26.5466667,21.3619853 C26.5466667,21.0986029 26.5286667,20.8409559 26.4924444,20.5890441 C26.9508889,19.7865441 27.1806667,18.9238235 27.1806667,18.0013235 C27.1804444,17.5698529 27.1262222,17.15625 27.0175556,16.7611765 L27.0175556,16.7611765 Z M4.38622222,25.0105147 C4.15688889,25.2379412 3.88533333,25.3519853 3.57155556,25.3519853 C3.25755556,25.3519853 2.986,25.2379412 2.75666667,25.0105147 C2.52733333,24.7830882 2.41266667,24.5133088 2.41266667,24.2016176 C2.41266667,23.8901471 2.52711111,23.6205882 2.75666667,23.3929412 C2.98622222,23.1652941 3.25755556,23.0514706 3.57155556,23.0514706 C3.88533333,23.0514706 4.15688889,23.1652941 4.38622222,23.3929412 C4.61555556,23.6205882 4.73022222,23.8901471 4.73022222,24.2016176 C4.73022222,24.5133088 4.61555556,24.7830882 4.38622222,25.0105147 L4.38622222,25.0105147 Z M25.1984444,15.3061765 C24.9388889,15.8574265 24.616,16.1388971 24.2297778,16.1508088 C24.4106667,16.3546324 24.5617778,16.6391912 24.6824444,17.0044853 C24.8031111,17.37 24.8631111,17.7024265 24.8631111,18.0019853 C24.8631111,18.8283088 24.5435556,19.5414706 23.9037778,20.1403676 C24.1213333,20.5235294 24.2297778,20.9371324 24.2297778,21.3802941 C24.2297778,21.8234559 24.1242222,22.2639706 23.9128889,22.7011765 C23.7017778,23.1381618 23.4151111,23.4527206 23.0531111,23.6444118 C23.1133333,24.00375 23.1433333,24.3392647 23.1433333,24.6507353 C23.1433333,26.6514706 21.9844444,27.6518382 19.6668889,27.6518382 L17.4766667,27.6518382 C15.8951111,27.6518382 13.8313333,27.2148529 11.2844444,26.34 C11.224,26.3161765 11.0491111,26.2530882 10.7593333,26.1513971 C10.4695556,26.0497059 10.2553333,25.9747059 10.1164444,25.9268382 C9.97755556,25.8785294 9.76644444,25.8097059 9.48266667,25.7199265 C9.19888889,25.6301471 8.96977778,25.5641912 8.79466667,25.5222794 C8.61977778,25.4805882 8.42044444,25.4415441 8.19733333,25.4055882 C7.97422222,25.3696324 7.784,25.3517647 7.62711111,25.3517647 L7.04777778,25.3517647 L7.04777778,13.8500735 L7.62711111,13.8500735 C7.82022222,13.8500735 8.03444444,13.7960294 8.26977778,13.6883824 C8.50511111,13.5805147 8.74666667,13.4188235 8.994,13.2030882 C9.24155556,12.9873529 9.47377778,12.7747059 9.69111111,12.5649265 C9.90844444,12.3553676 10.1497778,12.0917647 10.4153333,11.7743382 C10.6808889,11.4566912 10.8891111,11.2021324 11.04,11.0104412 C11.1908889,10.81875 11.3808889,10.5730147 11.6102222,10.2734559 C11.8395556,9.97411765 11.9784444,9.79433824 12.0266667,9.73433824 C12.6904444,8.91970588 13.1551111,8.37463235 13.4206667,8.09889706 C13.9155556,7.58382353 14.2746667,6.92779412 14.4977778,6.13102941 C14.7213333,5.33404412 14.9053333,4.58227941 15.0497778,3.87551471 C15.1946667,3.16852941 15.4242222,2.65919118 15.7382222,2.34772059 C16.8968889,2.34772059 17.6695556,2.62919118 18.0555556,3.19235294 C18.4417778,3.75551471 18.6348889,4.62419118 18.6348889,5.79838235 C18.6348889,6.50514706 18.3448889,7.46669118 17.7655556,8.68279412 C17.1864444,9.89889706 16.8968889,10.8544853 16.8968889,11.5493382 L23.2697778,11.5493382 C23.8737778,11.5493382 24.4106667,11.7798529 24.8813333,12.2413235 C25.352,12.7025735 25.5877778,13.2386029 25.5877778,13.8498529 C25.5877778,14.2691912 25.458,14.7544853 25.1984444,15.3061765 L25.1984444,15.3061765 Z" id="Shape"></path>
                    </g>
                </g>
            </g>
        </g>
    </g>
</svg>