<?xml version="1.0" encoding="UTF-8" standalone="no"?>
<svg width="16px" height="20px" viewBox="0 0 16 20" version="1.1" xmlns="http://www.w3.org/2000/svg" xmlns:xlink="http://www.w3.org/1999/xlink">
    <!-- Generator: Sketch 3.8.3 (29802) - http://www.bohemiancoding.com/sketch -->
    <title>icon-fire</title>
    <desc>Created with Sketch.</desc>
    <defs></defs>
    <g id="Page-1" stroke="none" stroke-width="1" fill="none" fill-rule="evenodd">
        <g id="Artboard-Copy-11" transform="translate(-7.000000, -5.000000)" fill="#FFFFFF">
            <path d="M14.9230769,25 C13.769225,25 12.7051331,24.8075688 11.7307692,24.4227006 C10.7564054,24.0378324 9.91987529,23.4996773 9.22115385,22.8082192 C8.5224324,22.1167611 7.97756606,21.2948515 7.58653846,20.3424658 C7.19551087,19.3900801 7,18.3529084 7,17.2309198 C7,16.6307863 7.07371721,16.0339234 7.22115385,15.4403132 C7.36859048,14.8467029 7.53205038,14.3085478 7.71153846,13.8258318 C7.89102654,13.3431157 8.05769154,12.9484686 8.21153846,12.6418787 C8.36538538,12.3352888 8.45512808,12.16895 8.48076923,12.1428572 C8.53205154,12.0254398 8.61538404,11.9406396 8.73076923,11.8884541 C8.84615442,11.8362686 8.96153788,11.8166993 9.07692308,11.8297457 C9.20512885,11.842792 9.31730721,11.8917152 9.41346154,11.9765167 C9.50961587,12.0613182 9.57051269,12.1624261 9.59615385,12.2798435 C9.60897442,12.2928899 9.69871712,12.5733828 9.86538462,13.1213308 C10.0320521,13.6692787 10.2371783,14.1454644 10.4807692,14.5499022 C10.6602573,14.8238762 10.8365376,15.0587075 11.0096154,15.2544032 C11.1826932,15.4500989 11.3653837,15.6131762 11.5576923,15.74364 C11.4294865,15.1695993 11.3333337,14.4716284 11.2692308,13.6497065 C11.2051279,12.8277846 11.2564094,11.9732596 11.4230769,11.0861057 C11.6410267,9.87279244 12.0064077,8.87802092 12.5192308,8.10176134 C13.0320538,7.32550175 13.5576896,6.70906956 14.0961538,6.25244628 C14.6346181,5.79582299 15.1153825,5.47945303 15.5384615,5.30332691 C15.9615406,5.12720078 16.1923075,5.03261595 16.2307692,5.01956957 C16.3333338,4.99347681 16.4358969,4.99347681 16.5384615,5.01956957 C16.6410262,5.04566233 16.737179,5.09132397 16.8269231,5.15655587 C16.9038465,5.23483415 16.9583332,5.32615743 16.9903846,5.43052847 C17.0224361,5.53489951 17.0256412,5.63926898 17,5.74364002 C17,5.74364002 16.9743592,5.93933277 16.9230769,6.33072416 C16.8717946,6.72211555 16.8493589,7.22439363 16.8557692,7.83757347 C16.8621795,8.45075331 16.9230763,9.12915487 17.0384615,9.87279851 C17.1538467,10.6164421 17.3717933,11.3535515 17.6923077,12.0841488 C17.7564106,12.2146126 17.8301278,12.3548591 17.9134615,12.5048924 C17.9967953,12.6549258 18.0833329,12.8082185 18.1730769,12.964775 C18.1987181,12.7560329 18.230769,12.5407709 18.2692308,12.3189824 C18.3076925,12.097194 18.358974,11.8754089 18.4230769,11.6536204 C18.6538473,10.7925594 19.0032028,10.1924349 19.4711538,9.85322904 C19.9391049,9.51402317 20.1858973,9.33789969 20.2115385,9.32485331 C20.3141031,9.27266779 20.4198713,9.25309851 20.5288462,9.26614489 C20.6378211,9.27919127 20.737179,9.32485291 20.8269231,9.40313119 C20.9166671,9.46836309 20.9839741,9.55642483 21.0288462,9.66731906 C21.0737182,9.77821328 21.0833335,9.89236739 21.0576923,10.0097848 C21.0576923,10.0358776 21.0673076,10.313109 21.0865385,10.8414873 C21.1057693,11.3698657 21.3653821,12.0515288 21.8653846,12.8864971 C22.3012842,13.6301408 22.5993582,14.3052808 22.7596154,14.9119374 C22.9198726,15.5185941 23,16.2915805 23,17.2309198 C23,18.3529084 22.7980789,19.3900801 22.3942308,20.3424658 C21.9903826,21.2948515 21.4294908,22.1167611 20.7115385,22.8082192 C19.9935862,23.4996773 19.1442357,24.0378324 18.1634615,24.4227006 C17.1826874,24.8075688 16.10257,25 14.9230769,25 L14.9230769,25 Z M8.92307692,14.1389433 C8.75640942,14.5694738 8.59935971,15.0587057 8.45192308,15.6066537 C8.30448644,16.1546016 8.23076923,16.6894951 8.23076923,17.2113503 C8.23076923,18.163736 8.39422913,19.0378304 8.72115385,19.8336595 C9.04807856,20.6294887 9.5096124,21.3176749 10.1057692,21.8982388 C10.7019261,22.4788027 11.4102523,22.9321575 12.2307692,23.258317 C13.0512862,23.5844765 13.9487131,23.7475538 14.9230769,23.7475538 C15.9230819,23.7475538 16.8397394,23.5844765 17.6730769,23.258317 C18.5064144,22.9321575 19.2275611,22.4788027 19.8365385,21.8982388 C20.4455159,21.3176749 20.9198701,20.6294887 21.2596154,19.8336595 C21.5993607,19.0378304 21.7692308,18.163736 21.7692308,17.2113503 C21.7692308,16.4024748 21.7051288,15.7501656 21.5769231,15.2544032 C21.4487173,14.7586408 21.1923096,14.1846087 20.8076923,13.5322897 C20.5512808,13.0887128 20.3525648,12.677758 20.2115385,12.299413 C20.0705121,11.921068 19.9743592,11.5753441 19.9230769,11.262231 C19.858974,11.3535556 19.7980772,11.4611867 19.7403846,11.5851273 C19.682692,11.7090679 19.6346156,11.8493144 19.5961538,12.0058709 C19.4166658,12.6712363 19.3269231,13.3202839 19.3269231,13.9530333 L19.3269231,14.9021527 C19.3269231,15.0456629 19.291667,15.1761247 19.2211538,15.2935421 C19.1506407,15.4109595 19.0448725,15.4957597 18.9038462,15.5479453 C18.7756404,15.5870844 18.6474365,15.5870844 18.5192308,15.5479453 C18.391025,15.5088061 18.2884619,15.430529 18.2115385,15.3131116 C18.1858973,15.2739725 17.9679508,14.9445563 17.5576923,14.3248533 C17.1474338,13.7051503 16.820514,13.1343797 16.5769231,12.6125245 C16.3333321,12.0515302 16.1442314,11.4938058 16.0096154,10.9393347 C15.8749993,10.3848636 15.7788464,9.84670849 15.7211538,9.32485331 C15.6634613,8.80299812 15.6378205,8.31376623 15.6442308,7.85714294 C15.6506411,7.40051966 15.6666665,6.99608796 15.6923077,6.64383571 C15.1923052,6.94390244 14.618593,7.45596515 13.9711538,8.18003922 C13.3237147,8.90411329 12.8782063,9.95106955 12.6346154,11.3209394 C12.5064096,11.9863048 12.4583332,12.638614 12.4903846,13.2778866 C12.5224361,13.9171592 12.5833329,14.4846682 12.6730769,14.9804306 C12.762821,15.476193 12.8557688,15.8806247 12.9519231,16.1937378 C13.0480774,16.5068509 13.0961538,16.6634051 13.0961538,16.6634051 C13.1346156,16.7677762 13.1442309,16.8786687 13.125,16.9960861 C13.1057691,17.1135036 13.0576927,17.217873 12.9807692,17.3091977 C12.9038458,17.387476 12.810898,17.4461838 12.7019231,17.4853229 C12.5929482,17.5244621 12.48718,17.5309852 12.3846154,17.5048924 C12.3461537,17.491846 11.9871829,17.3320303 11.3076923,17.0254404 C10.6282017,16.7188504 10.0064131,16.1154644 9.44230769,15.2152642 C9.35256365,15.0587077 9.26282096,14.8858457 9.17307692,14.6966732 C9.08333288,14.5075007 9.00000038,14.3215926 8.92307692,14.1389433 L8.92307692,14.1389433 Z" id="icon-fire"></path>
        </g>
    </g>
</svg>