<?xml version="1.0" encoding="UTF-8" standalone="no"?>
<svg width="22px" height="22px" viewBox="0 0 22 22" version="1.1" xmlns="http://www.w3.org/2000/svg" xmlns:xlink="http://www.w3.org/1999/xlink">
    <!-- Generator: Sketch 3.8.3 (29802) - http://www.bohemiancoding.com/sketch -->
    <title>Combined Shape</title>
    <desc>Created with Sketch.</desc>
    <defs>
        <path d="M25.1005624,20.8377075 C25.0667587,20.3582382 24.9995054,19.8408378 24.8986254,19.2853316 C24.7977455,18.7298253 24.6701412,18.2148721 24.5163435,17.7401223 C24.3625458,17.2655473 24.1558303,16.8026837 23.8961971,16.3517063 C23.6367409,15.900729 23.3387026,15.5161746 23.0020821,15.1980433 C22.6654616,14.879912 22.2546854,14.6261061 21.7693997,14.4362761 C21.28376,14.2464461 20.7478573,14.1513563 20.1615146,14.1513563 C20.0749702,14.1513563 19.8730333,14.253438 19.5558809,14.4576014 C19.2387284,14.6617648 18.880693,14.8897006 18.4817747,15.1412341 C18.0828564,15.3925928 17.56359,15.6207035 16.9245066,15.8245173 C16.2852462,16.0286807 15.643685,16.1307624 14.9994691,16.1307624 C14.3554301,16.1307624 13.7138689,16.0286807 13.0746085,15.8245173 C12.4355251,15.6207035 11.9162587,15.3925928 11.5173404,15.1412341 C11.1184221,14.8897006 10.7603867,14.6617648 10.4432342,14.4576014 C10.1259048,14.253438 9.92414487,14.1513563 9.83760048,14.1513563 C9.2512578,14.1513563 8.7153551,14.2464461 8.22989239,14.4362761 C7.74442967,14.6261061 7.33347655,14.8800868 6.99703301,15.1980433 C6.66058948,15.5161746 6.36255112,15.900729 6.10309493,16.3517063 C5.84363873,16.8026837 5.6369233,17.2657221 5.48312559,17.7401223 C5.32932789,18.2148721 5.20190056,18.7298253 5.1010206,19.2853316 C4.99996365,19.8408378 4.93271034,20.3580634 4.89908368,20.8377075 C4.86545703,21.3173517 4.8486437,21.8085325 4.8486437,22.3117743 C4.8486437,23.4509291 5.19959979,24.3506115 5.901335,25.0104718 C6.6030702,25.6701573 7.53559044,26 8.69871875,26 L21.3012812,26 C22.4644096,26 23.3967528,25.6701573 24.098665,25.0104718 C24.8005772,24.3506115 25.1513563,23.4511039 25.1513563,22.3117743 C25.1513563,21.8085325 25.134543,21.3171769 25.1005624,20.8377075 Z M15.0461747,15.1664919 C16.5876974,15.1664919 17.9034703,14.6211147 18.993672,13.5307171 C20.0842306,12.4403196 20.6294207,11.1245256 20.6294207,9.58315673 C20.6294207,8.04196634 20.0842306,6.72617236 18.993672,5.63559634 C17.9032919,4.54519878 16.5873405,4 15.0461747,4 C13.5050089,4 12.1890575,4.54519878 11.0986774,5.63559634 C10.0081188,6.72617236 9.46292874,8.04196634 9.46292874,9.58315673 C9.46292874,11.1245256 10.0081188,12.4403196 11.0986774,13.5307171 C12.189236,14.6211147 13.5050089,15.1664919 15.0461747,15.1664919 Z" id="path-1"></path>
        <mask id="mask-2" maskContentUnits="userSpaceOnUse" maskUnits="objectBoundingBox" x="0" y="0" width="20.3027126" height="22" fill="white">
            <use xlink:href="#path-1"></use>
        </mask>
    </defs>
    <g id="Page-1" stroke="none" stroke-width="1" fill="none" fill-rule="evenodd">
        <g id="Artboard" transform="translate(-4.000000, -4.000000)" stroke="#FFFFFF" stroke-width="2">
            <use id="Combined-Shape" mask="url(#mask-2)" xlink:href="#path-1"></use>
        </g>
    </g>
</svg>