<?xml version="1.0" encoding="UTF-8" standalone="no"?>
<svg width="19px" height="20px" viewBox="0 0 19 20" version="1.1" xmlns="http://www.w3.org/2000/svg" xmlns:xlink="http://www.w3.org/1999/xlink">
    <!-- Generator: Sketch 3.8.3 (29802) - http://www.bohemiancoding.com/sketch -->
    <title>icon-pub</title>
    <desc>Created with Sketch.</desc>
    <defs>
        <path d="M5,14 L5,4 L4,3 L5,0 L17,0 L18,3 L17,4 L17,14 L19,17 L19,20 L3,20 L3,17 L5,14 Z" id="path-1"></path>
        <mask id="mask-2" maskContentUnits="userSpaceOnUse" maskUnits="objectBoundingBox" x="0" y="0" width="16" height="20" fill="white">
            <use xlink:href="#path-1"></use>
        </mask>
        <path d="M4.54747351e-13,5.01403981 L1,4 L6,4 L6,14 C1,14 1.00000006,14 1,6 L4.54747351e-13,5.01403981 Z" id="path-3"></path>
        <mask id="mask-4" maskContentUnits="userSpaceOnUse" maskUnits="objectBoundingBox" x="0" y="0" width="6" height="10" fill="white">
            <use xlink:href="#path-3"></use>
        </mask>
    </defs>
    <g id="Page-1" stroke="none" stroke-width="1" fill="none" fill-rule="evenodd">
        <g id="Artboard-Copy-7" transform="translate(-4.000000, -5.000000)">
            <g id="icon-pub" transform="translate(4.000000, 5.000000)">
                <use id="Combined-Shape" stroke="#FFFFFF" mask="url(#mask-2)" stroke-width="3" xlink:href="#path-1"></use>
                <use id="Rectangle-26" stroke="#FFFFFF" mask="url(#mask-4)" stroke-width="2" xlink:href="#path-3"></use>
                <rect id="Rectangle-27" fill="#FFFFFF" x="8" y="3" width="6" height="1"></rect>
                <rect id="Rectangle-27-Copy" fill="#FFFFFF" x="8" y="14" width="6" height="1"></rect>
            </g>
        </g>
    </g>
</svg>