<?xml version="1.0" encoding="UTF-8" standalone="no"?>
<svg width="56px" height="73px" viewBox="0 0 56 73" version="1.1" xmlns="http://www.w3.org/2000/svg" xmlns:xlink="http://www.w3.org/1999/xlink">
    <!-- Generator: Sketch 3.8.3 (29802) - http://www.bohemiancoding.com/sketch -->
    <title>Combined Shape</title>
    <desc>Created with Sketch.</desc>
    <defs></defs>
    <g id="Page-1" stroke="none" stroke-width="1" fill="none" fill-rule="evenodd">
        <g id="desktop-homepage" transform="translate(-1217.000000, -920.000000)" fill="#4A4A4A">
            <g id="welcome" transform="translate(-1.000000, 753.000000)">
                <g id="Group-7-Copy-2" transform="translate(1083.000000, 167.000000)">
                    <path d="M177.520004,40.9594187 C180.60342,37.5156013 182.478261,32.9682833 182.478261,27.9833333 C182.478261,17.2321902 173.757546,8.51666667 163,8.51666667 C152.242454,8.51666667 143.521739,17.2321902 143.521739,27.9833333 C143.521739,32.9682833 145.39658,37.5156013 148.479996,40.9594187 C150.210964,38.1523145 152.734121,35.8851254 155.737995,34.469138 C154.197478,32.7474974 153.26087,30.4747286 153.26087,27.9833333 C153.26087,22.6077618 157.621227,18.25 163,18.25 C168.378773,18.25 172.73913,22.6077618 172.73913,27.9833333 C172.73913,30.4747286 171.802522,32.7474974 170.262005,34.469138 C173.265879,35.8851254 175.789036,38.1523145 177.520004,40.9594187 Z M163,73 C163,73 191,43.4381016 191,27.9833333 C191,12.5285651 178.463973,0 163,0 C147.536027,0 135,12.5285651 135,27.9833333 C135,43.4381016 163,73 163,73 Z" id="Combined-Shape"></path>
                </g>
            </g>
        </g>
    </g>
</svg>