<?xml version="1.0" encoding="utf-8"?>
<!-- Generator: Adobe Illustrator 16.0.0, SVG Export Plug-In . SVG Version: 6.00 Build 0)  -->
<!DOCTYPE svg PUBLIC "-//W3C//DTD SVG 1.1//EN" "http://www.w3.org/Graphics/SVG/1.1/DTD/svg11.dtd">
<svg version="1.1" id="Layer_1" xmlns="http://www.w3.org/2000/svg" xmlns:xlink="http://www.w3.org/1999/xlink" x="0px" y="0px"
	 width="127px" height="46px" viewBox="0 0 127 46" enable-background="new 0 0 127 46" xml:space="preserve">
<path fill-rule="evenodd" clip-rule="evenodd" fill="#FFFFFF" d="M32.481,19.328c-0.352,0.128-0.592,0.369-0.721,0.721
	c0.673,0.105,2.017-0.338,2.432,0.36c0.634-0.278,1.38-0.099,1.712,0.27c-0.885-0.183-2.115,0.253-2.612-0.45
	c-0.275-0.034-0.153,0.327-0.361,0.36c-0.362,0.032-0.659-0.001-0.72-0.27c-2.003,0.79-3.139,2.445-4.955,3.423
	c1.024-1.199,2.391-2.054,3.513-3.153c0.163-0.742,1.67-2.436,2.433-2.522c0.503-0.057,0.829,0.42,1.351,0.54
	c1.172,0.272,2.369,0.142,3.423-0.09c0.383,0.483,0.936,0.539,0.9,1.261c-0.497-0.626-2.013-0.252-2.612-0.54
	c-0.3,0.131-0.899,0.525-0.36,0.721c-0.188,0.222-0.43-0.26-0.721,0c0.166-0.315,0.017-0.382-0.09-0.631
	c0.277-0.013,0.405,0.317,0.631,0.09c-0.342-0.352-1.016-0.224-1.532-0.09c0.122,0.239,0.475,0.246,0.451,0.631
	c-0.376-0.229-0.677-0.521-1.171-0.181c0.25-0.405,0.218-0.283,0-0.72c0.282-0.043,0.238,0.242,0.45,0.27
	c0.118-0.032,0.142-0.159,0.27-0.18c-0.242-0.516-1.318-0.639-1.531,0c0.284,0.043,0.204-0.277,0.541-0.18
	c-0.144,0.332-0.49,0.322-0.271,0.81c-0.283-0.471-0.486,0.059-0.811-0.09C32.202,19.53,32.452,19.539,32.481,19.328"/>
<path fill="#FFFFFF" d="M0.992,2.364c0,0,27.717-8.337,62.038,12.884c0,0,1.516,1.083,0,2.274c0,0-4.764,3.897-5.63,4.114
	c0,0-0.866,0.649-2.491,0c0,0-35.078-23.71-53.051-18.73C1.858,2.905,0.126,3.447,0.992,2.364"/>
<path fill="#FFFFFF" d="M23.62,36.577c0,0,19.488,1.949,33.347-11.26c0,0,24.036-24.686,55.215-22.087c0,0,3.357,0.217,0,1.083
	c0,0-13.641,0.108-28.473,14.075c0,0-21.974,19.826-39.303,19.055c0,0-16.565,0.044-19.596,0.021
	C24.811,37.464,21.563,37.118,23.62,36.577"/>
<path fill-rule="evenodd" clip-rule="evenodd" fill="#FFFFFF" d="M45.812,24.732c-0.847-1.413-4.802-2.811-5.224-4.503
	c-0.404-1.614,0.277-3.329,0.09-4.954c-0.455-0.206-1.227-0.095-1.712-0.27c0.179-0.58-0.38-0.998,0.09-1.081
	c-0.936-0.22-0.592,0.545-0.901,1.081c-2-0.169-1.066,2.121-0.72,3.062c0.314-0.376,0.133-1.248,0.18-1.891
	c0.164-0.266,1.368-0.551,1.351,0.09c0.331,0.03,0.084-0.517,0.541-0.361c0.606,0.733,0.629,4.05-0.271,4.144
	c1.534,0.931,2.663,2.41,4.054,3.513c0.721,0.572,1.919,0.842,2.072,1.982c-0.307,0.473-1.349,0.213-1.982,0.36
	c-0.329-1.479-2.641-1.232-2.973,0.09c-0.673,0.106-1.319,0.242-2.161,0.18c-1.88-1.153-3.129-2.937-4.504-4.594
	c-0.919-0.002-2.548-0.416-2.973,0.18c0.327,0.052,0.747-0.267,0.991,0c-0.94,0.5-1.646,1.476-2.522,2.162
	c-0.711,0.557-1.754,0.971-1.892,1.892c1.122,0.02,1.837-0.809,2.793-1.44c0.509-0.337,2.162-1.659,2.792-1.622
	c0.72,0.042,1.365,1.352,2.252,2.072c0.38,0.309,1.102,0.583,1.441,0.9c1.474,1.381,0.168,5.465,0.631,7.837
	c2.981-0.172,4.982-1.322,7.116-2.343c0.405-1.275,0.145-3.218,0.54-4.503c0.214-0.177,0.627-0.154,0.811-0.361
	C45.965,25.741,46.097,25.208,45.812,24.732"/>
<path fill="#FFFFFF" d="M112.941,5.864c0,0-6.207,23.097,11.837,38.688c0,0,2.021,1.299,1.301-1.011c0,0-12.271-9.961-11.406-36.955
	C114.673,6.586,114.384,3.987,112.941,5.864"/>
</svg>
