<?xml version="1.0" encoding="UTF-8" standalone="no"?>
<svg width="22px" height="22px" viewBox="0 0 22 22" version="1.1" xmlns="http://www.w3.org/2000/svg" xmlns:xlink="http://www.w3.org/1999/xlink">
    <!-- Generator: Sketch 3.8.3 (29802) - http://www.bohemiancoding.com/sketch -->
    <title>telephone66 copy</title>
    <desc>Created with Sketch.</desc>
    <defs></defs>
    <g id="Page-1" stroke="none" stroke-width="1" fill="none" fill-rule="evenodd">
        <g id="mobile-homepage" transform="translate(-84.000000, -20.000000)" fill="#FFFFFF">
            <g id="telephone66-copy" transform="translate(84.000000, 20.000000)">
                <path d="M21.0194737,16.5310526 C20.9624561,16.3594737 20.6003509,16.1068421 19.9331579,15.7735088 C19.7524561,15.6685965 19.4949123,15.5257895 19.1617544,15.3447368 C18.8280702,15.1636842 18.5254386,14.9968421 18.2540351,14.8442105 C17.9822807,14.6919298 17.7273684,14.5440351 17.4892982,14.4014035 C17.4512281,14.372807 17.3321053,14.2894737 17.1319298,14.1512281 C16.9317544,14.0131579 16.762807,13.9107018 16.624386,13.8438596 C16.4863158,13.777193 16.3505263,13.7438596 16.2170175,13.7438596 C16.0264912,13.7438596 15.7884211,13.8796491 15.5026316,14.1512281 C15.2168421,14.422807 14.9547368,14.7180702 14.7166667,15.0375439 C14.4784211,15.3568421 14.2259649,15.6521053 13.9592982,15.9236842 C13.6924561,16.1954386 13.4731579,16.3310526 13.3017544,16.3310526 C13.2159649,16.3310526 13.1085965,16.307193 12.98,16.2598246 C12.8515789,16.2122807 12.7538596,16.1714035 12.6868421,16.1384211 C12.6203509,16.1049123 12.5061404,16.0384211 12.3440351,15.9380702 C12.1817544,15.8380702 12.0914035,15.7831579 12.0724561,15.7735088 C10.7670175,15.0492982 9.64736842,14.2201754 8.71350877,13.2864912 C7.77982456,12.3526316 6.95070175,11.2329825 6.22649123,9.92754386 C6.21701754,9.90842105 6.16210526,9.81789474 6.06210526,9.65596491 C5.96192982,9.49385965 5.89526316,9.37964912 5.86192982,9.31280702 C5.82859649,9.24614035 5.78807018,9.14842105 5.74052632,9.01982456 C5.69298246,8.89122807 5.66912281,8.78403509 5.66912281,8.69824561 C5.66912281,8.52684211 5.80491228,8.30754386 6.07649123,8.04070175 C6.34807018,7.77403509 6.64350877,7.52140351 6.96263158,7.28333333 C7.28192982,7.04526316 7.57719298,6.78315789 7.84877193,6.49736842 C8.12035088,6.21140351 8.25614035,5.97333333 8.25614035,5.78280702 C8.25614035,5.64947368 8.22280702,5.51350877 8.15614035,5.3754386 C8.08947368,5.23701754 7.98701754,5.06807018 7.84877193,4.86789474 C7.71052632,4.6677193 7.62719298,4.54877193 7.59859649,4.51052632 C7.45578947,4.27245614 7.30824561,4.01754386 7.15561404,3.74596491 C7.00298246,3.47438596 6.83631579,3.17175439 6.65526316,2.83824561 C6.47421053,2.50491228 6.33140351,2.24754386 6.22649123,2.06649123 C5.89298246,1.39964912 5.64052632,1.03736842 5.46894737,0.980350877 C5.4022807,0.951754386 5.30210526,0.937368421 5.16877193,0.937368421 C4.91140351,0.937368421 4.57561404,0.984912281 4.16105263,1.08035088 C3.74649123,1.17561404 3.42017544,1.27561404 3.18192982,1.38052632 C2.7054386,1.58052632 2.20052632,2.16175439 1.66684211,3.12403509 C1.18087719,4.01964912 0.937894737,4.90596491 0.937894737,5.78263158 C0.937894737,6.03964912 0.954561404,6.28982456 0.987894737,6.53298246 C1.02122807,6.77596491 1.08087719,7.05 1.16666667,7.35491228 C1.25245614,7.65982456 1.32157895,7.88631579 1.37385965,8.03385965 C1.42614035,8.18140351 1.52385965,8.44578947 1.66684211,8.82701754 C1.80964912,9.20824561 1.8954386,9.44157895 1.92403509,9.52736842 C2.25754386,10.4612281 2.65298246,11.2949123 3.11035088,12.0287719 C3.86280702,13.2484211 4.88964912,14.5087719 6.19035088,15.8094737 C7.49105263,17.1101754 8.75122807,18.1370175 9.97105263,18.8898246 C10.7047368,19.3470175 11.5387719,19.7426316 12.4724561,20.0763158 C12.5582456,20.1047368 12.7917544,20.1905263 13.172807,20.3336842 C13.5538596,20.4764912 13.8184211,20.5742105 13.9659649,20.6266667 C14.1135088,20.6791228 14.34,20.7482456 14.6447368,20.8340351 C14.95,20.9198246 15.2238596,20.9794737 15.4668421,21.0129825 C15.7098246,21.0459649 15.96,21.0629825 16.217193,21.0629825 C17.0936842,21.0629825 17.98,20.8198246 18.8757895,20.3340351 C19.8378947,19.8003509 20.4191228,19.2952632 20.6192982,18.8185965 C20.724386,18.5807018 20.8242105,18.2542105 20.9194737,17.8396491 C21.0149123,17.4252632 21.0624561,17.0894737 21.0624561,16.8321053 C21.0626316,16.6982456 21.0482456,16.5982456 21.0194737,16.5310526 L21.0194737,16.5310526 Z" id="Shape"></path>
            </g>
        </g>
    </g>
</svg>