<?xml version="1.0" encoding="UTF-8" standalone="no"?>
<svg width="72px" height="65px" viewBox="0 0 72 65" version="1.1" xmlns="http://www.w3.org/2000/svg" xmlns:xlink="http://www.w3.org/1999/xlink">
    <!-- Generator: Sketch 3.8.3 (29802) - http://www.bohemiancoding.com/sketch -->
    <title>Group 4</title>
    <desc>Created with Sketch.</desc>
    <defs>
        <path d="M24.5,41.125 L28,62.125 L38.5,62.125 L38.5,44.625 L45.5,44.625 L45.5,62.125 L56,62.125 L59.5,41.125 L42,23.625 L24.5,41.125 Z M59.5,30.625 L59.5,16.625 L52.5,16.625 L52.5170625,23.6420625 L42,13.125 L14,41.125 L21,41.125 L42,20.125 L63,41.125 L70,41.125 L59.5,30.625 Z" id="path-1"></path>
        <filter x="-50%" y="-50%" width="200%" height="200%" filterUnits="objectBoundingBox" id="filter-2">
            <feOffset dx="0" dy="0" in="SourceAlpha" result="shadowOffsetOuter1"></feOffset>
            <feGaussianBlur stdDeviation="0.5" in="shadowOffsetOuter1" result="shadowBlurOuter1"></feGaussianBlur>
            <feColorMatrix values="0 0 0 0 0   0 0 0 0 0   0 0 0 0 0  0 0 0 0.5 0" type="matrix" in="shadowBlurOuter1"></feColorMatrix>
        </filter>
        <filter x="-50%" y="-50%" width="200%" height="200%" filterUnits="objectBoundingBox" id="filter-3">
            <feOffset dx="0" dy="0" in="SourceAlpha" result="shadowOffsetOuter1"></feOffset>
            <feMorphology radius="5" operator="erode" in="SourceAlpha" result="shadowInner"></feMorphology>
            <feOffset dx="0" dy="0" in="shadowInner" result="shadowInner"></feOffset>
            <feComposite in="shadowOffsetOuter1" in2="shadowInner" operator="out" result="shadowOffsetOuter1"></feComposite>
            <feGaussianBlur stdDeviation="0.5" in="shadowOffsetOuter1" result="shadowBlurOuter1"></feGaussianBlur>
            <feColorMatrix values="0 0 0 0 0   0 0 0 0 0   0 0 0 0 0  0 0 0 0.5 0" type="matrix" in="shadowBlurOuter1" result="shadowMatrixOuter1"></feColorMatrix>
            <feMerge>
                <feMergeNode in="shadowMatrixOuter1"></feMergeNode>
                <feMergeNode in="SourceGraphic"></feMergeNode>
            </feMerge>
        </filter>
    </defs>
    <g id="Page-1" stroke="none" stroke-width="1" fill="none" fill-rule="evenodd">
        <g id="desktop-homepage" transform="translate(-859.000000, -919.000000)">
            <g id="welcome" transform="translate(-1.000000, 753.000000)">
                <g id="Group-7-Copy" transform="translate(734.000000, 167.000000)">
                    <g id="Group-4" transform="translate(127.000000, 0.000000)">
                        <g id="Shape">
                            <use fill="black" fill-opacity="1" filter="url(#filter-2)" xlink:href="#path-1"></use>
                            <use fill="#4A4A4A" fill-rule="evenodd" xlink:href="#path-1"></use>
                        </g>
                        <g id="Group" filter="url(#filter-3)" fill="#4A4A4A">
                            <path d="M12.4399708,21.4124044 C11.5456128,24.2453949 8.52164332,28 6.23667506,28 C3.52545901,28 1.32758415,25.7622535 1.32758415,23.0018533 C1.32758415,20.2414531 3.52545901,18.3982972 6.23667506,18.3982972 C6.78801599,18.3982972 7.38238235,18.3484596 7.97947536,18.2922676 C7.64357459,18.2802648 7.29651557,18.2701066 6.94038889,18.2701066 C3.58704273,18.2701066 0.0357181209,16.2049191 0.0357181209,11.0654898 C0.0357181209,5.92606054 -0.493392114,-5.27786258e-16 2.52129858,0 C5.0892809,4.36002077e-16 10.7718569,6.45199005 12.3995292,11.5406667 C12.49974,11.7930139 12.5910426,12.1334038 12.6701402,12.5437647 C12.7449617,12.8903388 12.7968182,13.2273564 12.8231268,13.552002 C12.9244346,14.4098546 12.9832536,15.4325319 12.9832536,16.5305164 C12.9832536,18.6570988 12.7626109,20.5011877 12.4399708,21.4124044 Z M6.17208176,25.1721012 C7.24229862,25.1721012 8.1098808,24.2887802 8.1098808,23.1991486 C8.1098808,22.1095169 7.24229862,21.2261959 6.17208176,21.2261959 C5.1018649,21.2261959 4.23428271,22.1095169 4.23428271,23.1991486 C4.23428271,24.2887802 5.1018649,25.1721012 6.17208176,25.1721012 Z M5.37910308,15.307338 C6.79619561,15.307338 7.94497608,14.1377175 7.94497608,12.6949175 C7.94497608,11.2521176 6.79619561,10.0824971 5.37910308,10.0824971 C3.96201055,10.0824971 2.81323008,11.2521176 2.81323008,12.6949175 C2.81323008,14.1377175 3.96201055,15.307338 5.37910308,15.307338 Z" id="Combined-Shape"></path>
                            <path d="M26.4567172,21.4124044 C25.5623592,24.2453949 22.5383897,28 20.2534215,28 C17.5422054,28 15.3443306,25.7622535 15.3443306,23.0018533 C15.3443306,20.2414531 17.5422054,18.3982972 20.2534215,18.3982972 C20.8047624,18.3982972 21.3991288,18.3484596 21.9962218,18.2922676 C21.660321,18.2802648 21.313262,18.2701066 20.9571353,18.2701066 C17.6037891,18.2701066 14.0524645,16.2049191 14.0524645,11.0654898 C14.0524645,5.92606054 13.5233543,-5.27786258e-16 16.538045,0 C19.1060273,4.36002077e-16 24.7886033,6.45199005 26.4162756,11.5406667 C26.5164864,11.7930139 26.607789,12.1334038 26.6868866,12.5437647 C26.7617081,12.8903388 26.8135646,13.2273564 26.8398733,13.552002 C26.941181,14.4098546 27,15.4325319 27,16.5305164 C27,18.6570988 26.7793573,20.5011877 26.4567172,21.4124044 Z M20.1888282,25.1721012 C21.259045,25.1721012 22.1266272,24.2887802 22.1266272,23.1991486 C22.1266272,22.1095169 21.259045,21.2261959 20.1888282,21.2261959 C19.1186113,21.2261959 18.2510291,22.1095169 18.2510291,23.1991486 C18.2510291,24.2887802 19.1186113,25.1721012 20.1888282,25.1721012 Z M19.3958495,15.307338 C20.812942,15.307338 21.9617225,14.1377175 21.9617225,12.6949175 C21.9617225,11.2521176 20.812942,10.0824971 19.3958495,10.0824971 C17.978757,10.0824971 16.8299765,11.2521176 16.8299765,12.6949175 C16.8299765,14.1377175 17.978757,15.307338 19.3958495,15.307338 Z" id="Combined-Shape-Copy" transform="translate(20.508373, 14.000000) scale(-1, 1) translate(-20.508373, -14.000000) "></path>
                            <path d="M13.7709245,13.1000906 C13.9184324,14.0607522 14.0167464,15.7824057 14.0167464,17.7464789 C14.0167464,20.7594126 13.7853912,23.2018779 13.5,23.2018779 C13.2146088,23.2018779 12.9832536,20.7594126 12.9832536,17.7464789 C12.9832536,15.7824057 13.0815676,14.0607522 13.2290755,13.1000906 C12.8982509,12.9854102 12.6602871,12.6665228 12.6602871,12.2910798 C12.6602871,11.8191745 13.0362394,11.4366197 13.5,11.4366197 C13.9637606,11.4366197 14.3397129,11.8191745 14.3397129,12.2910798 C14.3397129,12.6665228 14.1017491,12.9854102 13.7709245,13.1000906 Z" id="Combined-Shape"></path>
                        </g>
                    </g>
                </g>
            </g>
        </g>
    </g>
</svg>