<?xml version="1.0" encoding="UTF-8" standalone="no"?>
<svg width="75px" height="14px" viewBox="0 0 75 14" version="1.1" xmlns="http://www.w3.org/2000/svg" xmlns:xlink="http://www.w3.org/1999/xlink">
    <!-- Generator: Sketch 3.8.3 (29802) - http://www.bohemiancoding.com/sketch -->
    <title>Group</title>
    <desc>Created with Sketch.</desc>
    <defs></defs>
    <g id="Page-1" stroke="none" stroke-width="1" fill="none" fill-rule="evenodd">
        <g id="desktop-homepage" transform="translate(-35.000000, -1036.000000)">
            <g id="welcome" transform="translate(-1.000000, 753.000000)">
                <g id="Group-2" transform="translate(36.000000, 165.000000)">
                    <g id="Group" transform="translate(0.000000, 118.000000)">
                        <path d="M43.0585526,7.91508219 C42.1181391,7.609 41.6406015,7.00076712 41.5854323,6.06813699 C41.5253759,5.05467123 41.8921992,4.24832877 42.7797932,3.75142466 C43.7133459,3.22863014 44.7307331,3.13245205 45.7422932,3.39289041 C46.7032895,3.64038356 47.6140038,3.80646575 48.4518797,3.08824658 C48.5775376,2.98056164 48.643985,3.06686301 48.7090226,3.16726027 C48.8558271,3.39356164 49.0047932,3.61832877 49.1517857,3.84453425 C49.4544173,4.31056164 49.4410714,4.33213699 48.9487782,4.61127397 C48.5421053,4.84179452 48.1047932,4.81168493 47.631297,4.80631507 C47.7388158,5.145 47.9341165,5.43161644 47.9517857,5.7860274 C48.0195489,7.14153425 47.0181391,8.16382192 45.5131579,8.24360274 C45.1244361,8.26421918 44.7281955,8.22576712 44.4026316,8.51468493 C44.2867481,8.61747945 44.1056391,8.69313699 44.1682331,8.88386301 C44.2236842,9.05291781 44.4012218,9.00708219 44.5379699,9.01235616 C45.1628759,9.03652055 45.7889098,9.0060274 46.412688,9.09587671 C47.4459586,9.24489041 48.2054511,9.89310959 48.3802632,10.8072329 C48.5883459,11.8957808 48.1628759,12.9173014 47.1852444,13.3753699 C45.6442669,14.0972329 44.0518797,14.0899452 42.5005639,13.4078767 C41.5977444,13.0107945 41.193515,12.0784521 41.4246241,11.2524521 C41.4908835,11.0153151 41.5927632,10.9145342 41.8459586,10.9246986 C42.3444549,10.9448356 42.8441729,10.9306438 43.3462406,10.9306438 C43.2486842,11.8976027 43.5140038,12.2416575 44.4328947,12.3378356 C44.9040414,12.3871233 45.3786654,12.3598904 45.8153195,12.1571781 C46.1797932,11.9880274 46.4343045,11.6920137 46.3918233,11.2583014 C46.3484962,10.8165342 46.0449248,10.6148767 45.6330827,10.5361507 C44.7504699,10.3673836 43.8507519,10.5054658 42.9658835,10.3575068 C42.1365602,10.2189452 41.8043233,9.87834247 41.8192669,9.13413699 C41.8271617,8.73973973 42.0150376,8.46635616 42.3279135,8.27687671 C42.5398496,8.14838356 42.7721805,8.0549863 43.0585526,7.91508219 L43.0585526,7.91508219 Z M44.7096805,6.91887671 C45.4659774,6.92836986 45.8921992,6.56456164 45.9111842,5.89352055 C45.9309211,5.19620548 45.4855263,4.75482192 44.7570489,4.74973973 C44.0357143,4.74465753 43.6053571,5.14250685 43.5950188,5.82380822 C43.5840226,6.54336986 43.9565789,6.90947945 44.7096805,6.91887671 L44.7096805,6.91887671 Z" id="Shape" fill="#C41E17"></path>
                        <path d="M72.7278195,3.63606849 C72.7278195,2.58041096 72.7417293,1.53261644 72.7199248,0.485684932 C72.712782,0.139520548 72.8047932,0.0327945205 73.1382519,0.105191781 C73.5048872,0.184780822 73.8767857,0.253246575 74.249812,0.283547945 C74.5955827,0.311643836 74.7147556,0.435342466 74.7130639,0.813246575 C74.7,3.64134247 74.712688,6.46963014 74.7192669,9.29782192 C74.7203947,9.76212329 74.7656955,10.2238356 74.8848684,10.6719315 C74.9474624,10.9073425 74.8953008,10.9927808 74.6522556,10.9856849 C74.2453947,10.9738904 73.8379699,10.9835753 73.4307331,10.9819452 C73.3690789,10.9816575 73.2666353,10.9898082 73.2518797,10.9593151 C72.9950188,10.4307671 72.7167293,10.8430959 72.4733083,10.9526986 C71.0333647,11.6008219 69.2880639,10.942726 68.6455827,9.43110959 C68.0368421,7.99908219 68.0482143,6.52984932 68.7105263,5.1160411 C69.4510338,3.53557534 70.9216165,3.01134247 72.7278195,3.63606849 L72.7278195,3.63606849 Z M72.7434211,7.24941096 C72.7434211,6.73841096 72.7421053,6.22731507 72.7441729,5.71641096 C72.7447368,5.55579452 72.7390977,5.41953425 72.5934211,5.29526027 C71.8355263,4.64943836 70.8459586,4.9250274 70.6017857,5.89083562 C70.3844925,6.74991781 70.3645677,7.63364384 70.5507519,8.50068493 C70.749812,9.42756164 71.650094,9.77084932 72.4426692,9.26828767 C72.6636278,9.12819178 72.7630639,8.96210959 72.749906,8.68632877 C72.7268797,8.20841096 72.7434211,7.72847945 72.7434211,7.24941096 L72.7434211,7.24941096 Z" id="Shape" fill="#C41E17"></path>
                        <path d="M27.0518797,5.80012329 C27.0519737,4.25053425 27.0593045,2.70084932 27.0458647,1.15145205 C27.0432331,0.840191781 27.0921053,0.703547945 27.4454887,0.707575342 C29.1206767,0.726753425 30.7961466,0.723109589 32.4715226,0.709589041 C32.8057331,0.70690411 32.9343045,0.786780822 32.8168233,1.13821918 C32.7671992,1.28675342 32.7703947,1.45283562 32.7422932,1.60961644 C32.5979323,2.4140411 32.5970865,2.41394521 31.8176692,2.41394521 C31.0347744,2.41394521 30.2516917,2.42526027 29.4691729,2.40790411 C29.1968045,2.4019589 29.1212406,2.49180822 29.1302632,2.76154795 C29.1489662,3.3200137 29.1493421,3.88010959 29.1297932,4.43847945 C29.1200188,4.71656164 29.2140977,4.79030137 29.4768797,4.78454795 C30.2281015,4.76815068 30.9800752,4.78656164 31.731391,4.77342466 C31.9669173,4.76939726 32.0706767,4.82491781 32.0544173,5.08813699 C32.0267857,5.53230137 32.1866541,6.10026027 31.9729323,6.38860274 C31.768703,6.66409589 31.1809211,6.45687671 30.762312,6.47135616 C30.3244361,6.48660274 29.8851504,6.48679452 29.4472744,6.47087671 C29.1758459,6.461 29.1455827,6.60406849 29.1483083,6.82720548 C29.1566729,7.49805479 29.1666353,8.16957534 29.1443609,8.83975342 C29.1343045,9.142 29.2315789,9.21631507 29.5158835,9.21180822 C30.5490602,9.19560274 31.5828008,9.21593151 32.6159774,9.19886301 C32.9117481,9.1939726 33.0365602,9.26071233 33.0103383,9.5879863 C32.974906,10.0316712 33.1449248,10.6127671 32.9270677,10.8879726 C32.6959586,11.1799589 32.1042293,10.974274 31.6712406,10.9782055 C30.2778195,10.9906712 28.8840226,10.9714932 27.4907895,10.9905753 C27.1481203,10.9953699 27.0375,10.9149178 27.0425752,10.5446849 C27.0642857,8.96345205 27.0517857,7.38164384 27.0518797,5.80012329 L27.0518797,5.80012329 Z" id="Shape" fill="#C41C14"></path>
                        <path d="M59.2906015,7.0600274 C59.2906015,7.63508219 59.293515,8.2100411 59.2896617,8.78509589 C59.2864662,9.25543836 59.4027256,9.67658904 59.7870301,9.96867123 C59.9847744,10.1187397 59.9473684,10.2254658 59.7985902,10.381 C59.5910714,10.5977123 59.3827068,10.8199863 59.2143797,11.067863 C58.9982143,11.3863151 58.7861842,11.3609041 58.5137218,11.155411 C58.2388158,10.9480959 57.4405075,10.9064795 57.1338346,11.0254795 C56.1800752,11.3953288 55.2220865,11.3874658 54.3209586,10.8920959 C53.5309211,10.4579041 53.2918233,9.67658904 53.312594,8.81760274 C53.3353383,7.87145205 53.7150376,7.12350685 54.5962406,6.70417808 C55.3543233,6.34343836 56.1677632,6.29357534 56.9808271,6.29060274 C57.2590226,6.28954795 57.3549812,6.26289041 57.3537594,5.95028767 C57.350094,5.06186301 57.0181391,4.76239726 56.1558271,4.92790411 C55.5781015,5.03884932 55.0519737,5.28365753 54.5678571,5.61352055 C54.375282,5.74469863 54.2857143,5.72743836 54.1760338,5.52357534 C53.9955827,5.18834247 53.7928571,4.86538356 53.5917293,4.54223288 C53.5034774,4.40031507 53.4823308,4.30030137 53.6548872,4.20268493 C54.9004699,3.49856164 56.1963346,3.04317808 57.6472744,3.34820548 C58.7343985,3.57680822 59.2719925,4.21390411 59.3081767,5.33534247 C59.3266917,5.90963014 59.3114662,6.48506849 59.3114662,7.0600274 C59.3045113,7.0600274 59.2975564,7.0600274 59.2906015,7.0600274 L59.2906015,7.0600274 Z M57.3287594,8.52206849 C57.3542293,7.5979726 57.3537594,7.595 56.4456767,7.74650685 C56.262406,7.777 56.0715226,7.81315068 55.906391,7.89408219 C55.4947368,8.09583562 55.3246241,8.67606849 55.5024436,9.1919589 C55.6628759,9.65721918 56.0699248,9.88064384 56.5491541,9.76653425 C57.1371241,9.62672603 57.3057331,9.35756164 57.3287594,8.52206849 L57.3287594,8.52206849 Z" id="Shape" fill="#C41E17"></path>
                        <path d="M36.0142857,4.11839726 C36.6004699,3.68468493 37.1773496,3.38953425 37.8489662,3.29546575 C39.1827068,3.10857534 40.1263158,3.91376712 40.1308271,5.28030137 C40.1366541,7.03634247 40.1198308,8.79267123 40.1421992,10.5484247 C40.1469925,10.9229726 40.0340226,11.0222192 39.6951128,10.9871233 C39.2015038,10.9361096 38.5400376,11.2040274 38.2566729,10.8764658 C38.0120301,10.5937808 38.1771617,9.93558904 38.1741541,9.44328767 C38.1668233,8.23017808 38.1800752,7.01658904 38.1591165,5.80376712 C38.1457707,5.03587671 37.7985902,4.81436986 37.0892857,5.07269863 C36.3242481,5.35135616 36.1847744,5.5530137 36.1847744,6.38045205 C36.1847744,7.76932877 36.1700188,9.15858904 36.1946429,10.5469863 C36.2012218,10.9187534 36.0919173,11.0158904 35.7490602,10.9902877 C35.3598684,10.9612329 34.9659774,10.9648767 34.5763158,10.9893288 C34.2619361,11.0089863 34.1843985,10.890274 34.187312,10.5806438 C34.2020677,9.01628767 34.187782,7.45164384 34.1970865,5.88728767 C34.2009398,5.2459726 34.1735902,4.60810959 33.9962406,3.99287671 C33.9244361,3.74384932 34.0117481,3.69053425 34.2077068,3.64038356 C34.5406015,3.55532877 34.8828947,3.486 35.1966165,3.35089041 C35.6709586,3.14664384 35.8527256,3.35376712 35.9234962,3.79687671 C35.9387218,3.89008219 35.9745301,3.97973973 36.0142857,4.11839726 L36.0142857,4.11839726 Z" id="Shape" fill="#C41E17"></path>
                        <path d="M62.8670113,4.13163014 C63.450188,3.70635616 64.018515,3.39384932 64.6893797,3.2990137 C66.0277256,3.10982192 66.9869361,3.88480822 67.0054511,5.25 C67.0296992,7.05369863 67.0074248,8.85806849 67.0173872,10.6619589 C67.018797,10.9150137 66.9423872,10.9964247 66.6984962,10.9876986 C66.2609023,10.9720685 65.8211466,10.9632466 65.3846805,10.9905753 C65.0745301,11.0099452 65.0287594,10.8791507 65.0308271,10.6018356 C65.0427632,9.05330137 65.0380639,7.50457534 65.0362782,5.9560411 C65.0351504,4.98591781 64.6275376,4.74130137 63.7521617,5.15909589 C63.2764098,5.38616438 63.0078008,5.66386301 63.0315789,6.27957534 C63.0871241,7.71428767 63.0386278,9.15283562 63.0576128,10.5893699 C63.0619361,10.9172192 62.9559211,11.003137 62.6591165,10.9881781 C62.268891,10.9684247 61.8755639,10.9629589 61.4861842,10.99 C61.1586466,11.0125342 61.062312,10.9032192 61.0664474,10.5650137 C61.0843045,9.09645205 61.0714286,7.62750685 61.0753759,6.15875342 C61.0773496,5.42308219 61.0596805,4.68827397 60.8630639,3.97609589 C60.8027256,3.75765753 60.8650376,3.69369863 61.0520677,3.64623288 C61.4153195,3.5539863 61.7908835,3.48456164 62.1320489,3.33583562 C62.5628759,3.1479863 62.6930451,3.37246575 62.7792293,3.72380822 C62.8053571,3.8310137 62.8258459,3.93956164 62.8670113,4.13163014 L62.8670113,4.13163014 Z" id="Shape" fill="#C41E17"></path>
                        <path d="M0.0861842105,0.862917808 C0.47406015,0.862917808 0.831578947,0.878164384 1.18703008,0.857356164 C1.41644737,0.844027397 1.43646617,1.00972603 1.47941729,1.1509726 C2.29351504,3.82756164 3.29830827,6.44258904 3.96983083,9.16530137 C3.98016917,9.20739726 4.01306391,9.24383562 4.06616541,9.33675342 C4.34323308,8.45858904 4.60460526,7.6259726 4.86860902,6.79421918 C5.44107143,4.99080822 6.02490602,3.19123288 6.5799812,1.38235616 C6.69971805,0.992082192 6.85545113,0.779205479 7.28778195,0.855438356 C7.49971805,0.892835616 7.72321429,0.861863014 8.00084586,0.861863014 C7.64285714,1.93526027 7.29990602,2.96982192 6.95291353,4.00294521 C6.21898496,6.18752055 5.47462406,8.36864384 4.75629699,10.5584932 C4.64783835,10.8891233 4.50639098,11.0034247 4.16578947,10.9922055 C3.4106203,10.9675616 3.40996241,10.9868356 3.1593985,10.2283425 C2.16738722,7.22524658 1.17528195,4.22215068 0.184116541,1.21886301 C0.15018797,1.11626027 0.126315789,1.00982192 0.0861842105,0.862917808 L0.0861842105,0.862917808 Z" id="Shape" fill="#C41E17"></path>
                        <path d="M51.9296992,4.60571233 C51.9296992,6.13669863 51.918797,7.47820548 51.9357143,8.81942466 C51.9414474,9.26675342 51.8831767,9.76336986 52.5883459,9.81016438 C52.8326128,9.82627397 52.7783835,10.2675616 52.8884398,10.5028767 C53.0546053,10.857863 52.9532895,11.0479178 52.5591165,11.0957671 C52.1539474,11.1449589 51.7516917,11.1907945 51.3460526,11.118589 C50.4406015,10.957589 49.9165414,10.3093699 49.9093045,9.27950685 C49.8930451,6.99606849 49.899812,4.71243836 49.8870301,2.42909589 C49.8841165,1.90313699 49.8518797,1.37631507 49.8094925,0.851986301 C49.7894737,0.604205479 49.8387218,0.481561644 50.1038534,0.436205479 C50.5496241,0.360164384 50.993797,0.259575342 51.4279135,0.131465753 C51.7721805,0.0298219178 51.8653195,0.148726027 51.8828947,0.485684932 C51.9575188,1.92193151 51.9154135,3.35875342 51.9296992,4.60571233 L51.9296992,4.60571233 Z" id="Shape" fill="#C41C14"></path>
                        <path d="M14.925,3.33526027 C15.5789474,3.33315068 16.1892857,3.51908219 16.7891917,3.76331507 C17.0406015,3.86563014 17.1105263,4.02615068 16.9286654,4.22589041 C16.7690789,4.40117808 16.8758459,4.92464384 16.3746241,4.68347945 C15.8033835,4.40875342 15.2137218,4.20891781 14.5654135,4.30452055 C13.9308271,4.39820548 13.5407895,4.80036986 13.5167293,5.3920137 C13.4913534,6.01319178 13.7582707,6.33672603 14.4461466,6.50108219 C14.8565789,6.59917808 15.274906,6.66572603 15.681391,6.77782192 C16.9366541,7.12427397 17.4390977,7.75954795 17.4015038,8.92154795 C17.3664474,10.0058767 16.6218045,10.8774247 15.5082707,11.1108219 C14.3734023,11.3486301 13.3074248,11.1010411 12.2763158,10.609411 C12.0433271,10.4983699 12.0475564,10.3894384 12.1568609,10.1759863 C12.4484023,9.60678082 12.4359962,9.60284932 12.9995301,9.86309589 C13.6356203,10.1568082 14.2981203,10.3245205 15.0014098,10.2555753 C15.6602444,10.1909452 16.0915414,9.80383562 16.1767857,9.2180411 C16.2649436,8.61268493 16.043515,8.17120548 15.4762218,7.97290411 C15.0356203,7.81880822 14.568515,7.74353425 14.1134398,7.63258904 C12.8540414,7.32554795 12.2477444,6.57165753 12.3115602,5.39268493 C12.3680451,4.34987671 13.2528195,3.49108219 14.4093045,3.36163014 C14.5801692,3.34264384 14.7531015,3.34360274 14.925,3.33526027 L14.925,3.33526027 Z" id="Shape" fill="#C41E17"></path>
                        <path d="M24.6290414,3.62724658 C24.7073308,3.62724658 24.7909774,3.60883562 24.862688,3.63079452 C25.0615602,3.69168493 25.3782895,3.46336986 25.4524436,3.77443836 C25.5356203,4.12328767 25.1294173,4.5199863 24.7706767,4.52276712 C23.6696429,4.5310137 23.6694549,4.5310137 23.6695489,5.67047945 C23.6695489,6.8360274 23.6682331,8.00167123 23.6704887,9.16712329 C23.6724624,10.1531644 23.987594,10.4316301 24.9357143,10.2775342 C25.1524436,10.2423425 25.3271617,10.1426164 25.3956767,10.5105479 C25.4572368,10.8408904 25.4338346,11.0090822 25.0969925,11.101137 C24.6664474,11.2188904 24.2324248,11.2625205 23.7961466,11.1988493 C22.9955827,11.081863 22.5720865,10.6169863 22.5590226,9.779 C22.5342105,8.18280822 22.5319549,6.58594521 22.5488722,4.98975342 C22.5528195,4.6109863 22.4524436,4.47568493 22.0807331,4.51452055 C21.9297932,4.53034247 21.6833647,4.62709589 21.6241541,4.42054795 C21.5609962,4.20057534 21.5567669,3.92747945 21.6289474,3.71345205 C21.6903195,3.53145205 21.9419173,3.619 22.0985902,3.63558904 C22.4468045,3.67260274 22.5906015,3.54727397 22.5591165,3.18845205 C22.543891,3.01489041 22.5589286,2.83720548 22.5735902,2.66258904 C22.6469925,1.78864384 22.6515038,1.80254795 23.5136278,1.60789041 C23.7916353,1.54508219 23.8710526,1.55265753 23.8169173,1.87571233 C23.7486842,2.28286301 23.7604323,2.70324658 23.7055451,3.11346575 C23.6548872,3.49175342 23.7357143,3.69763014 24.1599624,3.63117808 C24.3129699,3.60710959 24.4725564,3.62724658 24.6290414,3.62724658 L24.6290414,3.62724658 Z" id="Shape" fill="#C41E17"></path>
                        <path d="M10.5768797,7.21163014 C10.5768797,8.32856164 10.5647556,9.44578082 10.5843045,10.5623288 C10.5901316,10.8969863 10.4971805,10.9973836 10.1662594,10.9919178 C9.34774436,10.9783973 9.34736842,10.9953699 9.34727444,10.1628493 C9.34727444,8.15241096 9.36146617,6.14168493 9.33524436,4.13163014 C9.3299812,3.73138356 9.47095865,3.6230274 9.8137218,3.5709589 C10.5788534,3.45464384 10.5768797,3.44121918 10.5767857,4.24391781 C10.5768797,5.23312329 10.5768797,6.22242466 10.5768797,7.21163014 L10.5768797,7.21163014 Z" id="Shape" fill="#C41E17"></path>
                        <path d="M20.0979323,7.24893151 C20.0979323,8.34984932 20.087312,9.4509589 20.1044173,10.551589 C20.1093985,10.8715753 20.0407895,10.9971918 19.6968985,10.9919178 C18.875094,10.9793562 18.874812,10.9980548 18.874812,10.1708082 C18.874812,8.17638356 18.8885338,6.18176712 18.8637218,4.18763014 C18.8585526,3.76993151 18.9760338,3.61554795 19.3760338,3.56338356 C20.1007519,3.4690274 20.0979323,3.44620548 20.0979323,4.18542466 C20.0980263,5.20656164 20.0980263,6.22769863 20.0979323,7.24893151 L20.0979323,7.24893151 Z" id="Shape" fill="#C41E17"></path>
                        <path d="M10.8584586,1.35790411 C10.8644737,1.8669863 10.4780075,2.27519178 9.97960526,2.28621918 C9.48298872,2.2969589 9.06945489,1.89335616 9.0656015,1.3939589 C9.06165414,0.888136986 9.45328947,0.475136986 9.94699248,0.464684932 C10.4440789,0.454136986 10.8524436,0.854383562 10.8584586,1.35790411 L10.8584586,1.35790411 Z" id="Shape" fill="#C41E17"></path>
                        <path d="M18.6081767,1.37583562 C18.6109023,0.859561644 18.9975564,0.463726027 19.4973684,0.465547945 C19.993609,0.467369863 20.3993421,0.880753425 20.3928571,1.37813699 C20.3862782,1.88789041 19.9903195,2.28679452 19.4915414,2.28631507 C18.9892857,2.28583562 18.6054511,1.89028767 18.6081767,1.37583562 L18.6081767,1.37583562 Z" id="Shape" fill="#C41E17"></path>
                    </g>
                </g>
            </g>
        </g>
    </g>
</svg>