<svg width="74" height="74" viewBox="0 0 74 74" xmlns="http://www.w3.org/2000/svg" xmlns:xlink="http://www.w3.org/1999/xlink"><title>Shape</title><defs><path d="M190.84 44.08c.073.155.194.154.302.175 1.468.286 2.248 1.305 2.79 2.592.129.303.062.485-.21.646-1.218.72-2.466 1.072-3.836.415-.277-.133-.553-.327-.956-.26.695.87 1.232 1.797 1.452 2.865.485 2.346-.048 4.542-1.078 6.64-1.303 2.653-3.235 4.81-5.439 6.739-3 2.625-6.292 4.786-10.076 6.113-2.514.882-5.081 1.264-7.73.61-1.705-.421-3.071-1.323-4.156-2.86 0 .456-.014.783.003 1.108.072 1.377-.752 2.255-1.688 3.078-.246.217-.414.049-.582-.095-1.024-.882-1.75-1.904-1.57-3.354.024-.201.003-.409.003-.696-.262.306-.476.572-.707.824-1.54 1.682-3.548 2.225-5.727 2.307-2.289.086-4.468-.446-6.552-1.34-5.146-2.209-9.516-5.448-12.899-9.94-1.498-1.988-2.517-4.197-2.748-6.725-.165-1.794.236-3.419 1.298-4.878.082-.112.235-.199.177-.413-.454.03-.833.286-1.244.434-1.323.478-2.453.004-3.555-.668-.256-.156-.155-.35-.079-.535.519-1.27 1.278-2.29 2.72-2.594.124-.026.268-.015.35-.146-3.728-1.805-4.955-5.147-5.085-8.902-.239-6.938 1.866-13.221 5.97-18.808 1.398-1.902 3.203-3.354 5.458-4.184 1.672-.615 3.334-.581 5.047.001l-.534-.634-.54-.648c-.915-1.103-.825-2.348-.524-3.628.076-.32.297-.282.521-.266 1.492.106 2.722.651 3.437 2.059.082.162.188.312.356.589.067-.524.094-.92.17-1.306.45-2.261 1.884-3.831 3.678-5.12 2.129-1.528 4.563-2.327 7.114-2.759 4.504-.763 9-.72 13.447.404 2.558.646 4.91 1.72 6.805 3.633 1.294 1.306 2.176 2.807 2.267 4.694.005.107.041.212.08.403.231-.356.43-.644.61-.943.756-1.258 1.991-1.55 3.32-1.665.28-.024.344.153.394.367.327 1.376.298 2.678-.741 3.79-.306.327-.586.678-.94 1.092.716-.16 1.316-.402 1.96-.468 2.097-.216 3.904.524 5.576 1.68 2.096 1.45 3.643 3.401 4.857 5.604 2.722 4.94 4.325 10.19 4.186 15.887a12.707 12.707 0 0 1-.7 3.913c-.807 2.3-2.062 4.233-4.452 5.173zm-48.715-15.832l-.044.073.044.022-.012-.09c-1.321-2.324-1.19-4.61.175-6.867.607-1.003 1.385-1.861 2.243-2.652.157-.144.372-.247.165-.541-1.163-1.653-2.577-2.982-4.587-3.507-2.313-.604-4.916.347-5.39 3.35-.199 1.262-.275 2.533-.389 3.8-.259 2.895-.91 5.685-2.103 8.344-.885 1.973-2.113 3.75-3.178 5.62-.399.7-.766 1.423-.816 2.25-.103 1.737.894 3.269 2.643 4.063 1.866.846 3.758.692 5.654.117.838-.254.827-.265.659-1.14-.292-1.522-.393-3.05-.018-4.572.535-2.173 1.885-3.647 3.964-4.478-.198-.158-.41-.169-.61-.201-1.57-.254-2.501-1.232-3.072-2.65-.134-.333-.067-.509.226-.68 1.203-.701 2.433-1.053 3.787-.412.194.092.4.294.66.151zm35.753.011c.245.11.432-.07.616-.158 1.374-.647 2.624-.298 3.831.442.173.106.364.192.248.475-.505 1.235-1.156 2.321-2.583 2.66-.2.047-.394.12-.593.171-.18.047-.386.025-.536.208 2.313.936 3.662 2.635 4.048 5.07.235 1.478.103 2.954-.226 4.41-.06.265-.05.403.233.508 1.764.654 3.56.905 5.395.367 2.356-.69 4.65-3.092 2.717-6.421a61.277 61.277 0 0 0-1.273-2.12c-1.784-2.806-3.096-5.804-3.719-9.088-.396-2.086-.46-4.207-.714-6.309-.353-2.929-2.514-4.49-5.36-3.811-2.065.492-3.513 1.842-4.692 3.536-.177.254-.033.364.128.504.512.442.974.933 1.403 1.456 1.195 1.457 2.001 3.068 1.972 5.011-.017 1.114-.425 2.112-.881 3.099l-.07.065c.018.003.04.014.054.008.05-.023.05-.053.002-.083zm-8.041 24.822c-.03.103-.05.148-.056.195-.306 2.714-1.826 4.476-4.308 5.478-1.05.424-2.152.638-3.27.774-.218.027-.395.044-.41.337-.114 2.282.26 4.429 1.86 6.174 1.478 1.611 4.01 2.398 6.127.178a30.214 30.214 0 0 0 1.715-1.936c2.85-3.554 6.352-6.23 10.576-7.955 1.125-.46 2.267-.89 3.328-1.494 2.05-1.168 2.743-3.164 1.78-5.323-1.04-2.332-3.048-3.455-5.384-4.124-.24-.068-.37.01-.473.247-.285.653-.622 1.28-1.018 1.874-1.083 1.624-2.442 2.884-4.412 3.337-.996.23-1.99.16-3.091-.085.21.25.33.415.47.56 1.028 1.07 1.152 2.337.852 3.716-.082.377-.224.537-.634.499-1.353-.125-2.523-.55-3.238-1.809-.117-.206-.257-.4-.414-.643zm-22.74-2.254c-.055-.02-.074-.033-.09-.03-.092.014-.184.03-.275.048-2.025.4-3.827-.065-5.398-1.404-1.044-.89-1.797-2.001-2.407-3.218-.48-.96-.49-.987-1.522-.607-2.07.762-3.835 1.904-4.689 4.065-.825 2.087-.159 3.978 1.766 5.108.81.475 1.679.828 2.548 1.175 3.519 1.402 6.728 3.28 9.388 6.023 1.229 1.266 2.298 2.672 3.496 3.965 1.99 2.148 4.454 2.187 6.437.028 1.588-1.728 1.937-3.868 1.82-6.128-.015-.3-.217-.3-.422-.326-1.08-.135-2.145-.34-3.164-.738-2.114-.825-3.63-2.214-4.213-4.474-.099-.384-.152-.778-.23-1.183-.046.034-.065.04-.074.054-.123.188-.252.372-.366.566-.743 1.264-1.93 1.7-3.31 1.773-.196.01-.411.054-.482-.245-.294-1.26-.398-2.487.488-3.583.231-.286.46-.573.698-.87zm14.694-33.982l.124.052c.041-.06.076-.128.125-.182 1.532-1.703 3.43-2.392 5.703-2.091 1.494.198 2.837.79 4.135 1.514.19.107.352.275.56-.005 1.339-1.804 2.206-3.763 1.821-6.064-.344-2.055-1.945-4.058-4.919-3.453a43.55 43.55 0 0 0-2.46.56c-3.39.898-6.815 1.204-10.3.716-1.839-.258-3.619-.778-5.424-1.185-2.67-.603-4.578.343-5.287 2.733-.76 2.562.206 4.73 1.71 6.743.189.251.33.054.47-.026.698-.402 1.42-.76 2.177-1.032 1.855-.666 3.715-.862 5.579-.023.918.414 1.652 1.07 2.324 1.824.027-.057.04-.072.04-.086-.018-.224-.026-.449-.06-.67-.232-1.545.42-2.724 1.512-3.734.213-.197.376-.241.614-.035 1.102.958 1.839 2.071 1.632 3.617-.036.274-.051.551-.076.827zm1.747 36.709c.47.003.939-.003 1.403-.074 1.204-.186 1.998-.882 2.224-1.997a6.144 6.144 0 0 0-.05-2.732c-.402-1.615-1.301-2.971-2.232-4.314-.204-.295-.377-.12-.565-.027-2.583 1.267-5.216 1.332-7.903.361-.41-.148-.822-.63-1.199-.426-.369.2-.58.714-.829 1.109-.99 1.57-1.8 3.189-1.706 5.134.087 1.823.92 2.769 2.733 2.929.427.037.861.02 1.29-.004 1.365-.077 2.719-.355 4.094-.234.914.08 1.827.183 2.74.275zm-16.981-20.258c-1.147-.018-2.22.271-3.221.823-.846.466-1.25 1.196-1.248 2.165.002 1.003.372 1.903.78 2.786.685 1.482 1.25 2.996 1.517 4.618.154.938.37 1.871.84 2.719.635 1.144 1.516 1.574 2.802 1.353 1.108-.19 2.113-.616 2.995-1.323 1.032-.828 1.861-1.838 2.658-2.883.186-.243.123-.367-.07-.552-.364-.349-.732-.702-1.042-1.099-1.65-2.11-2.32-4.5-1.93-7.156.076-.519-.063-.72-.552-.843-1.163-.292-2.319-.601-3.529-.608zm31.33 3.19c.015-1.11-.38-1.876-1.244-2.359a6.28 6.28 0 0 0-2.662-.812c-1.445-.098-2.82.254-4.2.62-.441.117-.559.317-.45.738.065.252.082.519.094.78.141 2.962-.852 5.475-3.02 7.503-.26.242-.306.396-.067.67.456.52.864 1.084 1.324 1.601 1.067 1.2 2.32 2.11 3.921 2.48 1.57.364 2.603-.12 3.297-1.582.25-.527.432-1.08.529-1.651a21.32 21.32 0 0 1 1.861-5.8c.353-.723.579-1.5.618-2.188zm-18.754-10.83c-.052-.523-.096-1.045-.157-1.566-.182-1.548-.745-2.93-1.81-4.09-.959-1.046-2.029-1.241-3.293-.593-.793.406-1.462.985-2.098 1.594a16.44 16.44 0 0 1-3.622 2.64c-.793.425-1.57.884-2.225 1.514-1.042 1.002-1.211 2.097-.501 3.356.531.942 1.22 1.744 2.14 2.342 1.029.668 2.153 1.124 3.293 1.554.313.118.412-.026.534-.278 1.389-2.876 3.66-4.63 6.782-5.283.967-.203.967-.2.957-1.19zm1.698-.145c0 .244.02.49-.006.73-.037.346.082.49.442.542 3.395.484 5.82 2.307 7.317 5.376.135.278.26.346.551.236.929-.35 1.846-.72 2.716-1.202a6.713 6.713 0 0 0 2.729-2.759c.651-1.22.494-2.23-.484-3.217-.64-.646-1.413-1.112-2.207-1.533a16.808 16.808 0 0 1-3.759-2.735c-.418-.4-.87-.77-1.339-1.112-1.721-1.257-3.049-1.049-4.365.611-1.182 1.492-1.465 3.244-1.595 5.063z" id="b"/><filter x="-50%" y="-50%" width="200%" height="200%" filterUnits="objectBoundingBox" id="a"><feOffset in="SourceAlpha" result="shadowOffsetOuter1"/><feGaussianBlur stdDeviation=".5" in="shadowOffsetOuter1" result="shadowBlurOuter1"/><feColorMatrix values="0 0 0 0 0 0 0 0 0 0 0 0 0 0 0 0 0 0 0.5 0" in="shadowBlurOuter1"/></filter></defs><g transform="translate(-123 1)" fill="none" fill-rule="evenodd"><use fill="#4A4A4A" filter="url(#a)" xlink:href="#b"/><use fill="#4A4A4A" xlink:href="#b"/><use fill="#4A4A4A" xlink:href="#b"/></g></svg>